<?xml version="1.0" encoding="UTF-8"?>
<!-- Generated by Pixelmator Pro 3.7.1 -->
<svg width="350" height="220" viewBox="0 0 350 220" xmlns="http://www.w3.org/2000/svg">
    <path id="Rounded-Rectangle" fill="#b88134" fill-rule="evenodd" stroke="none" d="M 0 205 C -0 213.284271 6.715729 220 15 220 L 335 220 C 343.284271 220 350 213.284271 350 205 L 350 15 C 350 6.715729 343.284271 0 335 0 L 15 0 C 6.715729 0 0 6.715729 0 15 Z"/>
    <g id="Group">
        <path id="icon2" fill="none" stroke="#ffffff" stroke-width="1.756677" d="M 201.67952 153.210693 L 201.67952 152.576523 C 201.679031 151.611908 201.567032 150.650574 201.345749 149.71167 L 195.037537 122.898941 C 194.039871 118.658852 190.256485 115.662086 185.90062 115.66172 L 163.221039 115.66172 C 158.865173 115.662086 155.081787 118.658852 154.084137 122.898941 L 147.775909 149.71167 C 147.554626 150.650574 147.442627 151.611908 147.442139 152.576523 L 147.442139 153.210693 M 201.67952 153.210693 C 201.67952 157.819061 197.943695 161.554901 193.335312 161.554901 L 155.786346 161.554901 C 151.177963 161.554901 147.442139 157.819061 147.442139 153.210693 M 201.67952 153.210693 C 201.67952 148.602295 197.943695 144.86647 193.335312 144.86647 L 155.786346 144.86647 C 151.177963 144.86647 147.442139 148.602295 147.442139 153.210693 M 193.335312 153.210693 L 193.357559 153.210693 L 193.357559 153.232941 L 193.335312 153.232941 L 193.335312 153.210693 Z M 184.991104 153.210693 L 185.013351 153.210693 L 185.013351 153.232941 L 184.991104 153.232941 L 184.991104 153.210693 Z"/>
        <path id="icon2-copy" fill="none" stroke="#ffffff" stroke-width="1.756677" d="M 286 153.210693 L 286 152.576523 C 285.999512 151.611908 285.887512 150.650574 285.666229 149.71167 L 279.358002 122.898941 C 278.360352 118.658852 274.576965 115.662086 270.2211 115.66172 L 247.541519 115.66172 C 243.185638 115.662086 239.402267 118.658852 238.404602 122.898941 L 232.096375 149.71167 C 231.875107 150.650574 231.763107 151.611908 231.762604 152.576523 L 231.762604 153.210693 M 286 153.210693 C 286 157.819061 282.26416 161.554901 277.655792 161.554901 L 240.106827 161.554901 C 235.498444 161.554901 231.762604 157.819061 231.762604 153.210693 M 286 153.210693 C 286 148.602295 282.26416 144.86647 277.655792 144.86647 L 240.106827 144.86647 C 235.498444 144.86647 231.762604 148.602295 231.762604 153.210693 M 277.655792 153.210693 L 277.67804 153.210693 L 277.67804 153.232941 L 277.655792 153.232941 L 277.655792 153.210693 Z M 269.311584 153.210693 L 269.333832 153.210693 L 269.333832 153.232941 L 269.311584 153.232941 L 269.311584 153.210693 Z"/>
        <g id="icon3">
            <path id="Path" fill="none" stroke="#ffffff" stroke-width="2.147049" d="M 110.332344 46.785355 C 110.332344 50.342712 101.680946 53.226501 91.008904 53.226501 C 80.336861 53.226501 71.685463 50.342712 71.685463 46.785355 C 71.685463 43.228012 80.336861 40.344208 91.008904 40.344208 C 101.680946 40.344208 110.332344 43.228012 110.332344 46.785355 Z"/>
            <path id="path1" fill="none" stroke="#ffffff" stroke-width="2.147049" d="M 71.685463 46.785355 L 71.685463 76.844055 C 71.685463 80.401398 80.336861 83.285202 91.008904 83.285202 C 101.680946 83.285202 110.332344 80.401398 110.332344 76.844055 L 110.332344 46.785355"/>
            <path id="path2" fill="none" stroke="#ffffff" stroke-width="2.147049" d="M 71.685463 61.814713 C 71.685463 65.372055 80.336861 68.255859 91.008904 68.255859 C 101.680946 68.255859 110.332344 65.372055 110.332344 61.814713"/>
        </g>
        <path id="Line" fill="none" stroke="#ffffff" stroke-width="1.874519" d="M 91.008904 115.881302 L 91.008904 83.382782"/>
        <path id="icon2-copy-2" fill="none" stroke="#ffffff" stroke-width="1.756677" d="M 118.237389 153.210693 L 118.237389 152.576523 C 118.2369 151.611908 118.124901 150.650574 117.903618 149.71167 L 111.59539 122.898941 C 110.597733 118.658852 106.814354 115.662086 102.458481 115.66172 L 79.778908 115.66172 C 75.423035 115.662086 71.639648 118.658852 70.641991 122.898941 L 64.333771 149.71167 C 64.112488 150.650574 64.000488 151.611908 64 152.576523 L 64 153.210693 M 118.237389 153.210693 C 118.237389 157.819061 114.501556 161.554901 109.893173 161.554901 L 72.344215 161.554901 C 67.735832 161.554901 64 157.819061 64 153.210693 M 118.237389 153.210693 C 118.237389 148.602295 114.501556 144.86647 109.893173 144.86647 L 72.344215 144.86647 C 67.735832 144.86647 64 148.602295 64 153.210693 M 109.893173 153.210693 L 109.915428 153.210693 L 109.915428 153.232941 L 109.893173 153.232941 L 109.893173 153.210693 Z M 101.548958 153.210693 L 101.571213 153.210693 L 101.571213 153.232941 L 101.548958 153.232941 L 101.548958 153.210693 Z"/>
        <g id="g1">
            <path id="path3" fill="none" stroke="#ffffff" stroke-width="1.756677" stroke-linecap="round" stroke-dasharray="0 3.513353" stroke-dashoffset="0" d="M 91.008904 178.243317 L 258.771515 179.121658"/>
            <path id="path4" fill="none" stroke="#ffffff" stroke-width="1.874519" stroke-linecap="round" stroke-dasharray="0 3.749037" stroke-dashoffset="0" d="M 91.008904 161.554901 L 91.008904 178.243317"/>
            <path id="path5" fill="none" stroke="#ffffff" stroke-width="1.874519" stroke-linecap="round" stroke-dasharray="0 3.749037" stroke-dashoffset="0" d="M 175.329376 161.554901 L 175.329376 178.243317"/>
            <path id="path6" fill="none" stroke="#ffffff" stroke-width="1.874519" stroke-linecap="round" stroke-dasharray="0 3.749037" stroke-dashoffset="0" d="M 258.771515 161.554901 L 258.771515 180"/>
        </g>
    </g>
</svg>
