<?xml version="1.0" encoding="UTF-8"?>
<!-- Generated by Pixelmator Pro 3.7.1 -->
<svg width="350" height="220" viewBox="0 0 350 220" xmlns="http://www.w3.org/2000/svg">
    <path id="Rounded-Rectangle" fill="#27bb86" fill-rule="evenodd" stroke="none" d="M 0 205 C -0 213.284271 6.715729 220 15 220 L 335 220 C 343.284271 220 350 213.284271 350 205 L 350 15 C 350 6.715729 343.284271 0 335 0 L 15 0 C 6.715729 0 0 6.715729 0 15 Z"/>
    <g id="Group">
        <path id="icon2" fill="none" stroke="#ffffff" stroke-width="1.701286" d="M 200.338272 152.307617 L 200.338272 151.693451 C 200.337799 150.759247 200.22934 149.828217 200.01503 148.918945 L 193.905716 122.951645 C 192.939514 118.845261 189.275436 115.942986 185.0569 115.942635 L 163.092453 115.942635 C 158.873932 115.942986 155.209839 118.845261 154.243637 122.951645 L 148.134323 148.918945 C 147.920013 149.828217 147.811554 150.759247 147.811081 151.693451 L 147.811081 152.307617 M 200.338272 152.307617 C 200.338272 156.770691 196.720245 160.388733 192.257172 160.388733 L 155.892181 160.388733 C 151.429108 160.388733 147.811081 156.770691 147.811081 152.307617 M 200.338272 152.307617 C 200.338272 147.844543 196.720245 144.226501 192.257172 144.226501 L 155.892181 144.226501 C 151.429108 144.226501 147.811081 147.844543 147.811081 152.307617 M 192.257172 152.307617 L 192.278717 152.307617 L 192.278717 152.329163 L 192.257172 152.329163 L 192.257172 152.307617 Z M 184.176056 152.307617 L 184.197617 152.307617 L 184.197617 152.329163 L 184.176056 152.329163 L 184.176056 152.307617 Z"/>
        <path id="icon2-copy" fill="none" stroke="#ffffff" stroke-width="1.701286" d="M 282 152.307617 L 282 151.693451 C 281.999542 150.759247 281.891052 149.828217 281.676758 148.918945 L 275.567444 122.951645 C 274.601227 118.845261 270.937164 115.942986 266.718628 115.942635 L 244.754181 115.942635 C 240.535645 115.942986 236.871567 118.845261 235.905365 122.951645 L 229.796036 148.918945 C 229.581741 149.828217 229.473267 150.759247 229.472794 151.693451 L 229.472794 152.307617 M 282 152.307617 C 282 156.770691 278.381958 160.388733 273.918884 160.388733 L 237.553909 160.388733 C 233.090836 160.388733 229.472794 156.770691 229.472794 152.307617 M 282 152.307617 C 282 147.844543 278.381958 144.226501 273.918884 144.226501 L 237.553909 144.226501 C 233.090836 144.226501 229.472794 147.844543 229.472794 152.307617 M 273.918884 152.307617 L 273.94043 152.307617 L 273.94043 152.329163 L 273.918884 152.329163 L 273.918884 152.307617 Z M 265.837799 152.307617 L 265.859344 152.307617 L 265.859344 152.329163 L 265.837799 152.329163 L 265.837799 152.307617 Z"/>
        <g id="icon3">
            <path id="Path" fill="none" stroke="#ffffff" stroke-width="2.079349" d="M 165.461914 49.238052 C 165.461914 52.683228 157.083313 55.476089 146.747772 55.476089 C 136.412231 55.476089 128.03363 52.683228 128.03363 49.238052 C 128.03363 45.792862 136.412231 43 146.747772 43 C 157.083313 43 165.461914 45.792862 165.461914 49.238052 Z"/>
            <path id="path1" fill="none" stroke="#ffffff" stroke-width="2.079349" d="M 128.03363 49.238052 L 128.03363 78.348938 C 128.03363 81.794113 136.412231 84.58699 146.747772 84.58699 C 157.083313 84.58699 165.461914 81.794113 165.461914 78.348938 L 165.461914 49.238052"/>
            <path id="path2" fill="none" stroke="#ffffff" stroke-width="2.079349" d="M 128.03363 63.793488 C 128.03363 67.238678 136.412231 70.03154 146.747772 70.03154 C 157.083313 70.03154 165.461914 67.238678 165.461914 63.793488"/>
        </g>
        <g id="icon3-copy">
            <path id="path3" fill="none" stroke="#ffffff" stroke-width="2.079349" d="M 219.903061 49.238052 C 219.903061 52.683228 211.52446 55.476089 201.188919 55.476089 C 190.853378 55.476089 182.474777 52.683228 182.474777 49.238052 C 182.474777 45.792862 190.853378 43 201.188919 43 C 211.52446 43 219.903061 45.792862 219.903061 49.238052 Z"/>
            <path id="path4" fill="none" stroke="#ffffff" stroke-width="2.079349" d="M 182.474777 49.238052 L 182.474777 78.348938 C 182.474777 81.794113 190.853378 84.58699 201.188919 84.58699 C 211.52446 84.58699 219.903061 81.794113 219.903061 78.348938 L 219.903061 49.238052"/>
            <path id="path5" fill="none" stroke="#ffffff" stroke-width="2.079349" d="M 182.474777 63.793488 C 182.474777 67.238678 190.853378 70.03154 201.188919 70.03154 C 211.52446 70.03154 219.903061 67.238678 219.903061 63.793488"/>
        </g>
        <path id="Line" fill="none" stroke="#ffffff" stroke-width="1.844752" stroke-linecap="round" stroke-dasharray="0 3.689505" stroke-dashoffset="0" d="M 165.461914 63.415436 L 182.474777 63.415436"/>
        <path id="path6" fill="none" stroke="#ffffff" stroke-width="1.844752" stroke-linecap="round" stroke-dasharray="0 3.689505" stroke-dashoffset="0" d="M 173.968353 90.636002 L 173.968353 63.415436"/>
        <path id="path7" fill="none" stroke="#ffffff" stroke-width="1.701286" stroke-linecap="round" stroke-dasharray="0 3.402572" stroke-dashoffset="0" d="M 93.157272 116.155289 L 173.968353 90.636002"/>
        <path id="path8" fill="none" stroke="#ffffff" stroke-width="1.844752" stroke-linecap="round" stroke-dasharray="0 3.689505" stroke-dashoffset="0" d="M 173.968353 116.155289 L 173.968353 90.636002"/>
        <path id="path9" fill="none" stroke="#ffffff" stroke-width="1.701286" stroke-linecap="round" stroke-dasharray="0 3.402572" stroke-dashoffset="0" d="M 255.630066 116.155289 L 173.968353 90.636002"/>
        <g id="Group-copy">
            <path id="path10" fill="none" stroke="#ffffff" stroke-width="1.701286" stroke-linecap="round" stroke-dasharray="0 3.402572" stroke-dashoffset="0" d="M 92.306625 176.550934 L 254.779419 177.401581"/>
            <path id="path11" fill="none" stroke="#ffffff" stroke-width="1.844752" stroke-linecap="round" stroke-dasharray="0 3.689505" stroke-dashoffset="0" d="M 92.306625 160.388733 L 92.306625 176.550934"/>
            <path id="path12" fill="none" stroke="#ffffff" stroke-width="1.844752" stroke-linecap="round" stroke-dasharray="0 3.689505" stroke-dashoffset="0" d="M 173.968353 160.388733 L 173.968353 176.550934"/>
            <path id="path13" fill="none" stroke="#ffffff" stroke-width="1.844752" stroke-linecap="round" stroke-dasharray="0 3.689505" stroke-dashoffset="0" d="M 254.779419 160.388733 L 254.779419 178.252228"/>
        </g>
        <path id="icon2-copy-2" fill="none" stroke="#ffffff" stroke-width="1.701286" d="M 119.527199 152.307617 L 119.527199 151.693451 C 119.526726 150.759247 119.418259 149.828217 119.203957 148.918945 L 113.094635 122.951645 C 112.128441 118.845261 108.464355 115.942986 104.245827 115.942635 L 82.281372 115.942635 C 78.062851 115.942986 74.398758 118.845261 73.432564 122.951645 L 67.323242 148.918945 C 67.10894 149.828217 67.000473 150.759247 67 151.693451 L 67 152.307617 M 119.527199 152.307617 C 119.527199 156.770691 115.909164 160.388733 111.446091 160.388733 L 75.081108 160.388733 C 70.618034 160.388733 67 156.770691 67 152.307617 M 119.527199 152.307617 C 119.527199 147.844543 115.909164 144.226501 111.446091 144.226501 L 75.081108 144.226501 C 70.618034 144.226501 67 147.844543 67 152.307617 M 111.446091 152.307617 L 111.467644 152.307617 L 111.467644 152.329163 L 111.446091 152.329163 L 111.446091 152.307617 Z M 103.364983 152.307617 L 103.386536 152.307617 L 103.386536 152.329163 L 103.364983 152.329163 L 103.364983 152.307617 Z"/>
    </g>
</svg>
