<?xml version="1.0" encoding="UTF-8"?>
<!-- Generated by Pixelmator Pro 3.7.1 -->
<svg width="350" height="220" viewBox="0 0 350 220" xmlns="http://www.w3.org/2000/svg">
    <path id="Rounded-Rectangle" fill="#000000" fill-rule="evenodd" stroke="none" d="M 0 205 C -0 213.284271 6.715729 220 15 220 L 335 220 C 343.284271 220 350 213.284271 350 205 L 350 15 C 350 6.715729 343.284271 0 335 0 L 15 0 C 6.715729 0 0 6.715729 0 15 Z"/>
    <g id="CPU">
        <g id="gauge-base">
            <path id="Path" fill="none" stroke="#ffffff" stroke-width="2" d="M 37 78.5 C 37 65.521317 47.521309 55 60.5 55 C 73.478691 55 84 65.521317 84 78.5"/>
            <path id="path1" fill="#000000" stroke="#ffffff" stroke-width="2" d="M 44.049999 62.050003 L 47 65"/>
            <path id="path2" fill="#000000" stroke="#ffffff" stroke-width="2" d="M 60.5 55 L 60.5 58.524994"/>
            <path id="path3" fill="#000000" stroke="#ffffff" stroke-width="2" d="M 76.949997 62.050003 L 74 65"/>
        </g>
        <g id="pointer">
            <path id="path4" fill="#ffffff" stroke="#ffffff" d="M 61.899021 77.694626 L 60.635517 77.883072 L 52.05098 61.680374 L 62.637295 76.652069 Z"/>
        </g>
        <text id="text1" xml:space="preserve" x="41.797363" y="102" font-family="Courier New" font-size="18" font-weight="700" fill="#ffffff">CPU</text>
    </g>
    <g id="CPU-copy">
        <g id="g1">
            <path id="path5" fill="none" stroke="#ffffff" stroke-width="2" d="M 37 160.5 C 37 147.521301 47.521309 137 60.5 137 C 73.478691 137 84 147.521301 84 160.5"/>
            <path id="path6" fill="#000000" stroke="#ffffff" stroke-width="2" d="M 44.049999 144.050003 L 47 147"/>
            <path id="path7" fill="#000000" stroke="#ffffff" stroke-width="2" d="M 60.5 137 L 60.5 140.524994"/>
            <path id="path8" fill="#000000" stroke="#ffffff" stroke-width="2" d="M 76.949997 144.050003 L 74 147"/>
        </g>
        <g id="g2">
            <path id="path9" fill="#ffffff" stroke="#ffffff" d="M 59.604477 158.339844 L 59.342587 157.089493 L 75.016541 147.573761 L 60.688347 159.015991 Z"/>
        </g>
        <text id="Flows" xml:space="preserve"><tspan x="30.995605" y="184" font-family="Courier New" font-size="18" font-weight="700" fill="#ffffff" xml:space="preserve">F</tspan><tspan font-family="Courier New" font-size="18" font-weight="700" fill="#ffffff" xml:space="preserve">l</tspan><tspan font-family="Courier New" font-size="18" font-weight="700" fill="#ffffff" xml:space="preserve">o</tspan><tspan font-family="Courier New" font-size="18" font-weight="700" fill="#ffffff" xml:space="preserve">w</tspan><tspan font-family="Courier New" font-size="18" font-weight="700" fill="#ffffff" xml:space="preserve">s</tspan></text>
    </g>
    <g id="CPU-copy-2">
        <g id="g3">
            <path id="path10" fill="none" stroke="#ffffff" stroke-width="2" d="M 148 160.5 C 148 147.521301 158.521301 137 171.5 137 C 184.478699 137 195 147.521301 195 160.5"/>
            <path id="path11" fill="#000000" stroke="#ffffff" stroke-width="2" d="M 155.050003 144.050003 L 158 147"/>
            <path id="path12" fill="#000000" stroke="#ffffff" stroke-width="2" d="M 171.5 137 L 171.5 140.524994"/>
            <path id="path13" fill="#000000" stroke="#ffffff" stroke-width="2" d="M 187.949997 144.050003 L 185 147"/>
        </g>
        <g id="g4">
            <path id="path14" fill="#ffffff" stroke="#ffffff" d="M 171.61673 158.993286 L 170.74292 159.925171 L 153.956192 152.547668 L 171.54863 157.717621 Z"/>
        </g>
        <text id="Queues" xml:space="preserve"><tspan x="136.594727" y="184" font-family="Courier New" font-size="18" font-weight="700" fill="#ffffff" xml:space="preserve">Qu</tspan><tspan font-family="Courier New" font-size="18" font-weight="700" fill="#ffffff" xml:space="preserve">e</tspan><tspan font-family="Courier New" font-size="18" font-weight="700" fill="#ffffff" xml:space="preserve">u</tspan><tspan font-family="Courier New" font-size="18" font-weight="700" fill="#ffffff" xml:space="preserve">e</tspan><tspan font-family="Courier New" font-size="18" font-weight="700" fill="#ffffff" xml:space="preserve">s</tspan></text>
    </g>
    <g id="CPU-copy-3">
        <g id="g5">
            <path id="path15" fill="none" stroke="#ffffff" stroke-width="2" d="M 267 160.5 C 267 147.521301 277.521301 137 290.5 137 C 303.478699 137 314 147.521301 314 160.5"/>
            <path id="path16" fill="#000000" stroke="#ffffff" stroke-width="2" d="M 274.049988 144.050003 L 277 147"/>
            <path id="path17" fill="#000000" stroke="#ffffff" stroke-width="2" d="M 290.5 137 L 290.5 140.524994"/>
            <path id="path18" fill="#000000" stroke="#ffffff" stroke-width="2" d="M 306.950012 144.050003 L 304 147"/>
        </g>
        <g id="g6">
            <path id="path19" fill="#ffffff" stroke="#ffffff" d="M 291.116821 158.697952 L 290.636139 159.881546 L 272.319702 159.027069 L 290.595001 157.531906 Z"/>
        </g>
        <text id="Overflow" xml:space="preserve"><tspan x="244.792969" y="184" font-family="Courier New" font-size="18" font-weight="700" fill="#ffffff" xml:space="preserve">Ov</tspan><tspan font-family="Courier New" font-size="18" font-weight="700" fill="#ffffff" xml:space="preserve">e</tspan><tspan font-family="Courier New" font-size="18" font-weight="700" fill="#ffffff" xml:space="preserve">r</tspan><tspan font-family="Courier New" font-size="18" font-weight="700" fill="#ffffff" xml:space="preserve">f</tspan><tspan font-family="Courier New" font-size="18" font-weight="700" fill="#ffffff" xml:space="preserve">l</tspan><tspan font-family="Courier New" font-size="18" font-weight="700" fill="#ffffff" xml:space="preserve">o</tspan><tspan font-family="Courier New" font-size="18" font-weight="700" fill="#ffffff" xml:space="preserve">w</tspan></text>
    </g>
    <g id="Disk">
        <g id="g7">
            <path id="path20" fill="none" stroke="#ffffff" stroke-width="2" d="M 267 78.5 C 267 65.521317 277.521301 55 290.5 55 C 303.478699 55 314 65.521317 314 78.5"/>
            <path id="path21" fill="#000000" stroke="#ffffff" stroke-width="2" d="M 274.049988 62.050003 L 277 65"/>
            <path id="path22" fill="#000000" stroke="#ffffff" stroke-width="2" d="M 290.5 55 L 290.5 58.524994"/>
            <path id="path23" fill="#000000" stroke="#ffffff" stroke-width="2" d="M 306.950012 62.050003 L 304 65"/>
        </g>
        <g id="g8">
            <path id="path24" fill="#ffffff" stroke="#ffffff" d="M 290.590668 78.982056 L 289.350922 78.67392 L 287.601715 60.421188 L 291.671021 78.300293 Z"/>
        </g>
        <text id="text2" xml:space="preserve"><tspan x="266.396484" y="102" font-family="Courier New" font-size="18" font-weight="700" fill="#ffffff" xml:space="preserve">D</tspan><tspan font-family="Courier New" font-size="18" font-weight="700" fill="#ffffff" xml:space="preserve">i</tspan><tspan font-family="Courier New" font-size="18" font-weight="700" fill="#ffffff" xml:space="preserve">s</tspan><tspan font-family="Courier New" font-size="18" font-weight="700" fill="#ffffff" xml:space="preserve">k</tspan></text>
    </g>
    <g id="RAM">
        <g id="g9">
            <path id="path25" fill="none" stroke="#ffffff" stroke-width="2" d="M 151 78.5 C 151 65.521317 161.521301 55 174.5 55 C 187.478699 55 198 65.521317 198 78.5"/>
            <path id="path26" fill="#000000" stroke="#ffffff" stroke-width="2" d="M 158.050003 62.050003 L 161 65"/>
            <path id="path27" fill="#000000" stroke="#ffffff" stroke-width="2" d="M 174.5 55 L 174.5 58.524994"/>
            <path id="path28" fill="#000000" stroke="#ffffff" stroke-width="2" d="M 190.949997 62.050003 L 188 65"/>
        </g>
        <g id="g10">
            <path id="path29" fill="#ffffff" stroke="#ffffff" d="M 174.291962 77.96048 L 173.242874 77.231537 L 178.100082 59.550201 L 175.544159 77.70755 Z"/>
        </g>
        <text id="text3" xml:space="preserve"><tspan x="154.797363" y="99" font-family="Courier New" font-size="18" font-weight="700" fill="#ffffff" xml:space="preserve">R</tspan><tspan font-family="Courier New" font-size="18" font-weight="700" fill="#ffffff" xml:space="preserve">A</tspan><tspan font-family="Courier New" font-size="18" font-weight="700" fill="#ffffff" xml:space="preserve">M</tspan></text>
    </g>
</svg>
