<?xml version="1.0" encoding="UTF-8"?>
<!-- Generated by Pixelmator Pro 3.7.1 -->
<svg width="350" height="220" viewBox="0 0 350 220" xmlns="http://www.w3.org/2000/svg">
    <path id="Rounded-Rectangle" fill="#000000" fill-rule="evenodd" stroke="none" d="M 0 205 C -0 213.284271 6.715729 220 15 220 L 335 220 C 343.284271 220 350 213.284271 350 205 L 350 15 C 350 6.715729 343.284271 0 335 0 L 15 0 C 6.715729 0 0 6.715729 0 15 Z"/>
    <text id="Scale" xml:space="preserve" x="184" y="87" font-family="Homenaje" font-size="22" fill="#ffffff" letter-spacing="0.88">Scale</text>
    <text id="Fault-tolerant" xml:space="preserve"><tspan x="184" y="136" font-family="Homenaje" font-size="22" fill="#ffffff" letter-spacing="0.88" xml:space="preserve">Fau</tspan><tspan font-family="Homenaje" font-size="22" fill="#ffffff" letter-spacing="0.88" xml:space="preserve">lt</tspan><tspan font-family="Homenaje" font-size="22" fill="#ffffff" letter-spacing="0.88" xml:space="preserve"> </tspan><tspan font-family="Homenaje" font-size="22" fill="#ffffff" letter-spacing="0.88" xml:space="preserve">tol</tspan><tspan font-family="Homenaje" font-size="22" fill="#ffffff" letter-spacing="0.88" xml:space="preserve">e</tspan><tspan font-family="Homenaje" font-size="22" fill="#ffffff" letter-spacing="0.88" xml:space="preserve">r</tspan><tspan font-family="Homenaje" font-size="22" fill="#ffffff" letter-spacing="0.88" xml:space="preserve">a</tspan><tspan font-family="Homenaje" font-size="22" fill="#ffffff" letter-spacing="0.88" xml:space="preserve">nt</tspan></text>
    <text id="Docker" xml:space="preserve"><tspan x="184" y="182" font-family="Homenaje" font-size="22" fill="#ffffff" letter-spacing="0.88" xml:space="preserve">Do</tspan><tspan font-family="Homenaje" font-size="22" fill="#ffffff" letter-spacing="0.88" xml:space="preserve">c</tspan><tspan font-family="Homenaje" font-size="22" fill="#ffffff" letter-spacing="0.88" xml:space="preserve">ker</tspan></text>
    <text id="Ziggy-Cluster" xml:space="preserve" x="106.8875" y="36" font-family="Homenaje" font-size="29" fill="#ffffff" letter-spacing="1.16">Ziggy Cluster</text>
    <path id="cluster" fill="#ffffff" stroke="none" d="M 72.799995 156.160004 C 56.173332 156.160004 42.639999 142.626663 42.639999 126 C 42.639999 109.373337 56.173332 95.840004 72.799995 95.840004 C 89.426666 95.840004 102.959999 109.373337 102.959999 126 C 102.959999 142.626663 89.426666 156.160004 72.799995 156.160004 M 142.400009 170.080002 C 142.400009 175.198502 138.238495 179.360001 133.119995 179.360001 C 127.994797 179.360001 123.840004 175.2052 123.840004 170.080002 C 123.840004 164.961502 128.001495 160.800003 133.119995 160.800003 C 138.238495 160.800003 142.400009 164.961502 142.400009 170.080002 M 133.119995 72.639999 C 138.238495 72.639999 142.400009 76.801498 142.400009 81.919998 C 142.400009 87.038498 138.238495 91.199997 133.119995 91.199997 C 127.994797 91.199997 123.840004 87.045212 123.840004 81.919998 C 123.840004 76.801498 128.001495 72.639999 133.119995 72.639999 M 140.080002 116.720001 C 145.198502 116.720001 149.360001 120.8815 149.360001 126 C 149.360001 131.1185 145.198502 135.279999 140.080002 135.279999 C 134.954803 135.279999 130.800003 131.125198 130.800003 126 C 130.800003 120.8815 134.961502 116.720001 140.080002 116.720001 M 107.484001 128.320007 L 126.367836 128.320007 C 127.499092 135.012634 133.292435 139.913605 140.080002 139.919998 C 147.764496 139.912018 153.992004 133.684479 154 126 C 153.992004 118.315514 147.764496 112.08799 140.080002 112.080002 C 133.292435 112.086403 127.499092 116.987358 126.367836 123.68 L 107.484001 123.68 C 107.206764 119.382034 106.122948 115.174667 104.289169 111.277672 L 124.879166 93.109161 C 127.261581 94.880791 130.151077 95.83831 133.119995 95.840004 C 140.804489 95.832008 147.031998 89.604492 147.039993 81.919998 C 147.031998 74.235504 140.804489 68.007996 133.119995 68 C 125.435509 68.007996 119.207993 74.235504 119.199997 81.919998 C 119.199997 84.834503 120.103828 87.536331 121.636002 89.77417 L 101.993332 107.111336 C 95.588943 97.201378 84.599289 91.211655 72.799995 91.199997 C 53.611668 91.199997 38 106.811668 38 126 C 38 145.188324 53.611668 160.800003 72.799995 160.800003 C 84.597572 160.786713 95.585037 154.79718 101.988503 144.888672 L 121.636002 162.22583 C 120.046059 164.536163 119.196449 167.275452 119.199997 170.080002 C 119.207993 177.764496 125.435509 183.992004 133.119995 184 C 140.804489 183.992004 147.031998 177.764496 147.039993 170.080002 C 147.031998 162.395508 140.804489 156.167999 133.119995 156.160004 C 130.149414 156.160645 127.258064 157.118225 124.874336 158.890839 L 104.284332 140.722321 C 106.077499 136.908844 107.189163 132.727997 107.484001 128.320007"/>
</svg>
