<?xml version="1.0" encoding="UTF-8"?>
<!-- Generated by Pixelmator Pro 3.7.1 -->
<svg width="345" height="268" viewBox="0 0 345 268" xmlns="http://www.w3.org/2000/svg">
    <g id="Flow">
        <path id="Rounded-Rectangle" fill="#929292" fill-rule="evenodd" stroke="#d5d5d5" stroke-width="7.018923" stroke-linecap="round" stroke-linejoin="round" d="M 4.423077 248.438568 C 4.423077 256.745239 11.15696 263.479126 19.463627 263.479126 L 327.293518 263.479126 C 335.600189 263.479126 342.334076 256.745239 342.334076 248.438568 L 342.334076 17.816833 C 342.334076 9.510162 335.600189 2.776276 327.293518 2.776276 L 19.463627 2.776276 C 11.15696 2.776276 4.423077 9.510162 4.423077 17.816833 Z"/>
        <path id="Path" fill="#ffffff" fill-rule="evenodd" stroke="#ffffff" stroke-width="7.018923" stroke-linecap="round" stroke-linejoin="round" d="M 11.441999 52.928497 C 337.82486 53.398682 -29.839775 52.605743 336.317841 52.747711 L 336.317841 20.502045 C 336.317841 15.752411 333.971222 8.79248 324.359222 8.79248 L 22.404068 8.79248 C 12.792068 8.79248 11.441999 14.851669 11.441999 19.601303 Z"/>
        <text id="CRM---Warehouse" xml:space="preserve" x="23.699699" y="42" font-family="Figtree" font-size="31.329496" font-weight="700" fill="#000000" letter-spacing="1.25318">CRM -> Warehouse</text>
        <g id="blocks">
            <g id="Block-copy">
                <path id="path1" fill="#ffffff" fill-rule="evenodd" stroke="#d5d5d5" stroke-width="1.21215" stroke-linecap="round" stroke-linejoin="round" d="M 16.465157 180.086792 C 16.465157 183.912231 19.566288 187.013351 23.391726 187.013351 L 49.020027 187.013351 C 52.845467 187.013351 55.946598 183.912231 55.946598 180.086792 L 55.946598 154.458481 C 55.946598 150.633041 52.845467 147.531921 49.020027 147.531921 L 23.391726 147.531921 C 19.566288 147.531921 16.465157 150.633041 16.465157 154.458481 Z"/>
                <path id="path2" fill="#f7821a" fill-rule="evenodd" stroke="none" d="M 16.98465 158.407196 C 60.023979 158.3815 17.497465 158.495361 55.427105 158.407196 L 55.427105 154.631653 C 55.427105 150.324249 52.407581 147.878235 48.682816 147.878235 L 23.728939 147.878235 C 20.004171 147.878235 16.98465 150.324249 16.98465 154.631653 Z"/>
                <text id="Block" xml:space="preserve" x="24.069536" y="174" font-family="Figtree" font-size="6.926569" font-weight="700" fill="#000000" letter-spacing="0.277063">Block</text>
            </g>
            <g id="Block-copy-2">
                <path id="path3" fill="#ffffff" fill-rule="evenodd" stroke="#d5d5d5" stroke-width="1.21215" stroke-linecap="round" stroke-linejoin="round" d="M 89.353973 142.630035 C 89.353973 146.455475 92.455101 149.55661 96.28054 149.55661 L 121.908844 149.55661 C 125.734283 149.55661 128.835419 146.455475 128.835419 142.630035 L 128.835419 117.00174 C 128.835419 113.1763 125.734283 110.075165 121.908844 110.075165 L 96.28054 110.075165 C 92.455101 110.075165 89.353973 113.1763 89.353973 117.00174 Z"/>
                <path id="path4" fill="#f7821a" fill-rule="evenodd" stroke="none" d="M 89.873466 120.950439 C 132.912796 120.924759 90.386276 121.038605 128.315918 120.950439 L 128.315918 117.174896 C 128.315918 112.867508 125.296394 110.421494 121.571625 110.421494 L 96.617752 110.421494 C 92.892982 110.421494 89.873466 112.867508 89.873466 117.174896 Z"/>
                <text id="text1" xml:space="preserve" x="98.069536" y="135" font-family="Figtree" font-size="6.926569" font-weight="700" fill="#000000" letter-spacing="0.277063">Block</text>
            </g>
            <g id="Block-copy-3">
                <path id="path5" fill="#ffffff" fill-rule="evenodd" stroke="#d5d5d5" stroke-width="1.21215" stroke-linecap="round" stroke-linejoin="round" d="M 89.353973 205.395401 C 89.353973 209.22084 92.455101 212.321976 96.28054 212.321976 L 121.908844 212.321976 C 125.734283 212.321976 128.835419 209.22084 128.835419 205.395401 L 128.835419 179.76709 C 128.835419 175.94165 125.734283 172.84053 121.908844 172.84053 L 96.28054 172.84053 C 92.455101 172.84053 89.353973 175.94165 89.353973 179.76709 Z"/>
                <path id="path6" fill="#f7821a" fill-rule="evenodd" stroke="none" d="M 89.873466 183.715805 C 132.912796 183.690125 90.386276 183.803986 128.315918 183.715805 L 128.315918 179.940262 C 128.315918 175.632874 125.296394 173.186859 121.571625 173.186859 L 96.617752 173.186859 C 92.892982 173.186859 89.873466 175.632874 89.873466 179.940262 Z"/>
                <text id="text2" xml:space="preserve" x="98.069536" y="198" font-family="Figtree" font-size="6.926569" font-weight="700" fill="#000000" letter-spacing="0.277063">Block</text>
            </g>
            <g id="Block-copy-4">
                <path id="path7" fill="#ffffff" fill-rule="evenodd" stroke="#d5d5d5" stroke-width="1.21215" stroke-linecap="round" stroke-linejoin="round" d="M 155.156372 142.630035 C 155.156372 146.455475 158.257507 149.55661 162.082947 149.55661 L 187.711243 149.55661 C 191.536682 149.55661 194.637817 146.455475 194.637817 142.630035 L 194.637817 117.00174 C 194.637817 113.1763 191.536682 110.075165 187.711243 110.075165 L 162.082947 110.075165 C 158.257507 110.075165 155.156372 113.1763 155.156372 117.00174 Z"/>
                <path id="path8" fill="#f7821a" fill-rule="evenodd" stroke="none" d="M 155.675858 120.950439 C 198.715195 120.924759 156.188675 121.038605 194.118317 120.950439 L 194.118317 117.174896 C 194.118317 112.867508 191.098801 110.421494 187.374023 110.421494 L 162.420151 110.421494 C 158.695389 110.421494 155.675858 112.867508 155.675858 117.174896 Z"/>
                <text id="text3" xml:space="preserve" x="164.069536" y="135" font-family="Figtree" font-size="6.926569" font-weight="700" fill="#000000" letter-spacing="0.277063">Block</text>
            </g>
            <g id="Block-copy-7">
                <path id="path9" fill="#ffffff" fill-rule="evenodd" stroke="#d5d5d5" stroke-width="1.21215" stroke-linecap="round" stroke-linejoin="round" d="M 219.946426 141.617691 C 219.946426 145.44313 223.047562 148.54425 226.873001 148.54425 L 252.501297 148.54425 C 256.326752 148.54425 259.427856 145.44313 259.427856 141.617691 L 259.427856 115.989395 C 259.427856 112.163956 256.326752 109.06282 252.501297 109.06282 L 226.873001 109.06282 C 223.047562 109.06282 219.946426 112.163956 219.946426 115.989395 Z"/>
                <path id="path10" fill="#f7821a" fill-rule="evenodd" stroke="none" d="M 220.465927 119.938095 C 263.505249 119.912415 220.978729 120.02626 258.908386 119.938095 L 258.908386 116.162552 C 258.908386 111.855164 255.888855 109.409149 252.164093 109.409149 L 227.210205 109.409149 C 223.485443 109.409149 220.465927 111.855164 220.465927 116.162552 Z"/>
                <text id="text4" xml:space="preserve" x="228.069536" y="135" font-family="Figtree" font-size="6.926569" font-weight="700" fill="#000000" letter-spacing="0.277063">Block</text>
            </g>
            <g id="Lines">
                <path id="Line" fill="#929292" fill-rule="evenodd" stroke="#ffffff" stroke-width="1.019532" stroke-linecap="round" stroke-linejoin="round" d="M 129.847763 129.309708 L 154.144028 129.309708"/>
                <path id="Line-copy" fill="#929292" fill-rule="evenodd" stroke="#ffffff" stroke-width="1.019532" stroke-linecap="round" stroke-linejoin="round" d="M 195.650162 129.309708 L 219.946426 129.309708"/>
                <path id="Line-copy-2" fill="#929292" fill-rule="evenodd" stroke="#ffffff" stroke-width="1.019532" stroke-linecap="round" stroke-linejoin="round" d="M 129.847763 195.112122 L 154.144028 195.112122"/>
                <path id="Line-copy-3" fill="#929292" fill-rule="evenodd" stroke="#ffffff" stroke-width="1.012345" stroke-linecap="round" stroke-linejoin="round" d="M 195.650162 195.112122 C 195.650162 195.112122 244.86618 195.006012 256.390839 195.112122 C 259.019958 195.136322 258.61972 196.44426 260.440216 194.099762 C 262.292969 191.713669 260.965607 177.291595 261.452545 168.791153 C 261.751007 163.581207 262.353821 162.805634 265.501923 162.717087 C 268.152435 162.642517 273.938141 162.717087 276.637726 162.717087 C 281.024567 162.717087 289.798218 162.717087 289.798218 162.717087"/>
                <path id="path11" fill="#929292" fill-rule="evenodd" stroke="#ffffff" stroke-width="1.012345" stroke-linecap="round" stroke-linejoin="round" d="M 260.440216 129.309708 L 275.348083 129.309708 C 275.348083 129.309708 276.868805 129.540924 277.650085 130.322052 C 278.493988 131.165817 278.662994 132.889832 278.662994 132.889832 L 278.667206 158.90976 C 278.667206 158.90976 278.777283 160.807404 279.674774 161.704742 C 280.158112 162.188004 281.699463 162.717087 281.699463 162.717087 L 289.798218 162.717087"/>
                <path id="path12" fill="#929292" fill-rule="evenodd" stroke="#ffffff" stroke-width="1.012345" stroke-linecap="round" stroke-linejoin="round" d="M 55.946598 169.803497 L 71.570213 169.803497 L 73.156456 170.815842 L 74.1688 172.674088 L 74.1688 191.352966 L 75.181145 193.087433 L 76.63533 194.099762 L 88.341629 194.099762"/>
                <path id="path13" fill="#929292" fill-rule="evenodd" stroke="#ffffff" stroke-width="1.012345" stroke-linecap="round" stroke-linejoin="round" d="M 72.144112 169.803497 L 74.1688 167.778809 L 74.1688 165.75412 L 74.1688 132.01506 L 75.181145 130.322052 L 77.437836 129.309708 L 82.723274 129.309708 L 88.341629 129.309708"/>
            </g>
            <g id="Block-copy-5">
                <path id="path14" fill="#ffffff" fill-rule="evenodd" stroke="#d5d5d5" stroke-width="1.21215" stroke-linecap="round" stroke-linejoin="round" d="M 155.156372 205.395401 C 155.156372 209.22084 158.257507 212.321976 162.082947 212.321976 L 187.711243 212.321976 C 191.536682 212.321976 194.637817 209.22084 194.637817 205.395401 L 194.637817 179.76709 C 194.637817 175.94165 191.536682 172.84053 187.711243 172.84053 L 162.082947 172.84053 C 158.257507 172.84053 155.156372 175.94165 155.156372 179.76709 Z"/>
                <path id="path15" fill="#f7821a" fill-rule="evenodd" stroke="none" d="M 155.675858 183.715805 C 198.715195 183.690125 156.188675 183.803986 194.118317 183.715805 L 194.118317 179.940262 C 194.118317 175.632874 191.098801 173.186859 187.374023 173.186859 L 162.420151 173.186859 C 158.695389 173.186859 155.675858 175.632874 155.675858 179.940262 Z"/>
                <text id="text5" xml:space="preserve" x="164.069536" y="198" font-family="Figtree" font-size="6.926569" font-weight="700" fill="#000000" letter-spacing="0.277063">Block</text>
            </g>
            <g id="Block-copy-6">
                <path id="path16" fill="#ffffff" fill-rule="evenodd" stroke="#d5d5d5" stroke-width="1.21215" stroke-linecap="round" stroke-linejoin="round" d="M 290.810547 174.012726 C 290.810547 177.838165 293.911682 180.939285 297.737122 180.939285 L 323.365417 180.939285 C 327.190857 180.939285 330.291992 177.838165 330.291992 174.012726 L 330.291992 148.384415 C 330.291992 144.558975 327.190857 141.457855 323.365417 141.457855 L 297.737122 141.457855 C 293.911682 141.457855 290.810547 144.558975 290.810547 148.384415 Z"/>
                <path id="path17" fill="#f7821a" fill-rule="evenodd" stroke="none" d="M 291.330048 152.33313 C 334.369385 152.307434 291.842865 152.421295 329.772491 152.33313 L 329.772491 148.557587 C 329.772491 144.250183 326.752991 141.804169 323.028198 141.804169 L 298.074341 141.804169 C 294.349579 141.804169 291.330048 144.250183 291.330048 148.557587 Z"/>
                <text id="text6" xml:space="preserve" x="299.069536" y="166" font-family="Figtree" font-size="6.926569" font-weight="700" fill="#000000" letter-spacing="0.277063">Block</text>
            </g>
        </g>
    </g>
</svg>
