<?xml version="1.0" encoding="UTF-8"?>
<!-- Generated by Pixelmator Pro 3.7.1 -->
<svg width="350" height="350" viewBox="0 0 350 350" xmlns="http://www.w3.org/2000/svg">
    <g id="Group">
        <g id="Instance">
            <path id="Rounded-Rectangle" fill="#ffffff" fill-rule="evenodd" stroke="#404040" stroke-width="8" stroke-linecap="round" stroke-linejoin="round" d="M 4 323 C 4 335.702545 14.297451 346 27 346 L 323 346 C 335.702545 346 346 335.702545 346 323 L 346 27.5 C 346 14.797455 335.702545 4.5 323 4.5 L 27 4.5 C 14.297451 4.5 4 14.797455 4 27.5 Z"/>
            <path id="Path-copy" fill="#ffffff" fill-rule="evenodd" stroke="#ffffff" stroke-width="7" stroke-linecap="round" stroke-linejoin="round" d="M 13 73.016998 C 338.50293 73.485931 -28.170481 72.695129 337 72.8367 L 337 40.677979 C 337 35.941162 334.659698 29 325.073608 29 L 23.932516 29 C 14.346429 29 13 35.042847 13 39.779663 Z"/>
            <text id="Server" xml:space="preserve"><tspan x="103.936467" y="51" font-family="Figtree" font-size="40" font-weight="700" fill="#000000" letter-spacing="1.6" xml:space="preserve">S</tspan><tspan font-family="Figtree" font-size="40" font-weight="700" fill="#000000" letter-spacing="1.6" xml:space="preserve">e</tspan><tspan font-family="Figtree" font-size="40" font-weight="700" fill="#000000" letter-spacing="1.6" xml:space="preserve">r</tspan><tspan font-family="Figtree" font-size="40" font-weight="700" fill="#000000" letter-spacing="1.6" xml:space="preserve">ve</tspan><tspan font-family="Figtree" font-size="40" font-weight="700" fill="#000000" letter-spacing="1.6" xml:space="preserve">r</tspan></text>
            <path id="Oval" fill="#ffffff" fill-rule="evenodd" stroke="#404040" stroke-width="8" stroke-linecap="round" stroke-linejoin="round" d="M 328 40 C 328 33.924866 323.075134 29 317 29 C 310.924866 29 306 33.924866 306 40 C 306 46.075134 310.924866 51 317 51 C 323.075134 51 328 46.075134 328 40 Z"/>
        </g>
        <g id="CRM---Warehouse">
            <path id="path1" fill="#929292" fill-rule="evenodd" stroke="#d5d5d5" stroke-width="3.136498" stroke-linecap="round" stroke-linejoin="round" d="M 37 194.278931 C 37 197.990875 40.009125 201 43.721069 201 L 181.278931 201 C 184.990875 201 188 197.990875 188 194.278931 L 188 91.222534 C 188 87.51062 184.990875 84.501465 181.278931 84.501465 L 43.721069 84.501465 C 40.009125 84.501465 37 87.51062 37 91.222534 Z"/>
            <path id="Path" fill="#ffffff" fill-rule="evenodd" stroke="#ffffff" stroke-width="3.136498" stroke-linecap="round" stroke-linejoin="round" d="M 40.136497 106.912674 C 185.984985 107.122772 21.689192 106.768448 185.311569 106.831879 L 185.311569 92.422485 C 185.311569 90.300049 184.262955 87.189911 179.967697 87.189911 L 45.035046 87.189911 C 40.739796 87.189911 40.136497 89.897522 40.136497 92.019958 Z"/>
            <text id="text1" xml:space="preserve" x="44.283185" y="103" font-family="Figtree" font-size="14" font-weight="700" fill="#000000" letter-spacing="0.56">CRM -> Warehouse</text>
            <g id="blocks">
                <g id="Block-copy">
                    <path id="path2" fill="#ffffff" fill-rule="evenodd" stroke="#d5d5d5" stroke-width="0.541665" stroke-linecap="round" stroke-linejoin="round" d="M 42.381165 163.735031 C 42.381165 165.444473 43.766945 166.830261 45.476391 166.830261 L 56.928738 166.830261 C 58.638187 166.830261 60.023968 165.444473 60.023968 163.735031 L 60.023968 152.282684 C 60.023968 150.573242 58.638187 149.187454 56.928738 149.187454 L 45.476391 149.187454 C 43.766945 149.187454 42.381165 150.573242 42.381165 152.282684 Z"/>
                    <path id="path3" fill="#f7821a" fill-rule="evenodd" stroke="none" d="M 42.613304 154.047226 C 61.846001 154.035736 42.842464 154.086624 59.791824 154.047226 L 59.791824 152.360062 C 59.791824 150.435257 58.442509 149.342224 56.778049 149.342224 L 45.627079 149.342224 C 43.962616 149.342224 42.613304 150.435257 42.613304 152.360062 Z"/>
                    <text id="Block" xml:space="preserve" x="44.785872" y="162" font-family="Figtree" font-size="3.095229" font-weight="700" fill="#000000" letter-spacing="0.123809">Block</text>
                </g>
                <g id="Block-copy-2">
                    <path id="path4" fill="#ffffff" fill-rule="evenodd" stroke="#d5d5d5" stroke-width="0.541665" stroke-linecap="round" stroke-linejoin="round" d="M 74.952492 146.996994 C 74.952492 148.706436 76.338272 150.092209 78.047722 150.092209 L 89.500069 150.092209 C 91.209518 150.092209 92.595299 148.706436 92.595299 146.996994 L 92.595299 135.544647 C 92.595299 133.83519 91.209518 132.449417 89.500069 132.449417 L 78.047722 132.449417 C 76.338272 132.449417 74.952492 133.83519 74.952492 135.544647 Z"/>
                    <path id="path5" fill="#f7821a" fill-rule="evenodd" stroke="none" d="M 75.184639 137.309174 C 94.417328 137.297699 75.413795 137.348572 92.363159 137.309174 L 92.363159 135.622025 C 92.363159 133.697205 91.01384 132.604172 89.34938 132.604172 L 78.19841 132.604172 C 76.533951 132.604172 75.184639 133.697205 75.184639 135.622025 Z"/>
                    <text id="text2" xml:space="preserve" x="77.785872" y="145" font-family="Figtree" font-size="3.095229" font-weight="700" fill="#000000" letter-spacing="0.123809">Block</text>
                </g>
                <g id="Block-copy-3">
                    <path id="path6" fill="#ffffff" fill-rule="evenodd" stroke="#d5d5d5" stroke-width="0.541665" stroke-linecap="round" stroke-linejoin="round" d="M 74.952492 175.044525 C 74.952492 176.753967 76.338272 178.139755 78.047722 178.139755 L 89.500069 178.139755 C 91.209518 178.139755 92.595299 176.753967 92.595299 175.044525 L 92.595299 163.592178 C 92.595299 161.882721 91.209518 160.496948 89.500069 160.496948 L 78.047722 160.496948 C 76.338272 160.496948 74.952492 161.882721 74.952492 163.592178 Z"/>
                    <path id="path7" fill="#f7821a" fill-rule="evenodd" stroke="none" d="M 75.184639 165.356705 C 94.417328 165.34523 75.413795 165.396103 92.363159 165.356705 L 92.363159 163.669556 C 92.363159 161.744736 91.01384 160.651703 89.34938 160.651703 L 78.19841 160.651703 C 76.533951 160.651703 75.184639 161.744736 75.184639 163.669556 Z"/>
                    <text id="text3" xml:space="preserve" x="77.785872" y="173" font-family="Figtree" font-size="3.095229" font-weight="700" fill="#000000" letter-spacing="0.123809">Block</text>
                </g>
                <g id="Block-copy-4">
                    <path id="path8" fill="#ffffff" fill-rule="evenodd" stroke="#d5d5d5" stroke-width="0.541665" stroke-linecap="round" stroke-linejoin="round" d="M 104.35717 146.996994 C 104.35717 148.706436 105.74295 150.092209 107.452393 150.092209 L 118.904739 150.092209 C 120.614189 150.092209 121.999969 148.706436 121.999969 146.996994 L 121.999969 135.544647 C 121.999969 133.83519 120.614189 132.449417 118.904739 132.449417 L 107.452393 132.449417 C 105.74295 132.449417 104.35717 133.83519 104.35717 135.544647 Z"/>
                    <path id="path9" fill="#f7821a" fill-rule="evenodd" stroke="none" d="M 104.58931 137.309174 C 123.822006 137.297699 104.818466 137.348572 121.76783 137.309174 L 121.76783 135.622025 C 121.76783 133.697205 120.418518 132.604172 118.754051 132.604172 L 107.603081 132.604172 C 105.938622 132.604172 104.58931 133.697205 104.58931 135.622025 Z"/>
                    <text id="text4" xml:space="preserve" x="106.785872" y="145" font-family="Figtree" font-size="3.095229" font-weight="700" fill="#000000" letter-spacing="0.123809">Block</text>
                </g>
                <g id="Block-copy-7">
                    <path id="path10" fill="#ffffff" fill-rule="evenodd" stroke="#d5d5d5" stroke-width="0.541665" stroke-linecap="round" stroke-linejoin="round" d="M 133.309464 146.544601 C 133.309464 148.254059 134.695236 149.639832 136.404694 149.639832 L 147.85704 149.639832 C 149.566483 149.639832 150.952271 148.254059 150.952271 146.544601 L 150.952271 135.092255 C 150.952271 133.382813 149.566483 131.997025 147.85704 131.997025 L 136.404694 131.997025 C 134.695236 131.997025 133.309464 133.382813 133.309464 135.092255 Z"/>
                    <path id="path11" fill="#f7821a" fill-rule="evenodd" stroke="none" d="M 133.541611 136.856796 C 152.774292 136.845322 133.770767 136.896194 150.720123 136.856796 L 150.720123 135.169647 C 150.720123 133.244827 149.370804 132.151794 147.706345 132.151794 L 136.555374 132.151794 C 134.890915 132.151794 133.541611 133.244827 133.541611 135.169647 Z"/>
                    <text id="text5" xml:space="preserve" x="135.785872" y="145" font-family="Figtree" font-size="3.095229" font-weight="700" fill="#000000" letter-spacing="0.123809">Block</text>
                </g>
                <g id="Lines">
                    <path id="Line" fill="#929292" fill-rule="evenodd" stroke="#ffffff" stroke-width="0.678654" stroke-linecap="round" stroke-linejoin="round" d="M 93.047676 141.044632 L 103.904785 141.044632"/>
                    <path id="Line-copy" fill="#929292" fill-rule="evenodd" stroke="#ffffff" stroke-width="0.678654" stroke-linecap="round" stroke-linejoin="round" d="M 122.452354 141.044632 L 133.309464 141.044632"/>
                    <path id="Line-copy-2" fill="#929292" fill-rule="evenodd" stroke="#ffffff" stroke-width="0.678654" stroke-linecap="round" stroke-linejoin="round" d="M 93.047676 170.449295 L 103.904785 170.449295"/>
                    <path id="Line-copy-3" fill="#929292" fill-rule="evenodd" stroke="#ffffff" stroke-width="0.45238" stroke-linecap="round" stroke-linejoin="round" d="M 122.452354 170.449295 C 122.452354 170.449295 144.445175 170.401886 149.595123 170.449295 C 150.769989 170.460114 150.591141 171.044586 151.404648 169.996918 C 152.232574 168.930664 151.63942 162.485962 151.857025 158.687424 C 151.990387 156.359299 152.259766 156.012726 153.66655 155.973145 C 154.850952 155.939835 157.436371 155.973145 158.642715 155.973145 C 160.603027 155.973145 164.523651 155.973145 164.523651 155.973145"/>
                    <path id="path12" fill="#929292" fill-rule="evenodd" stroke="#ffffff" stroke-width="0.45238" stroke-linecap="round" stroke-linejoin="round" d="M 151.404648 141.044632 L 158.066422 141.044632 C 158.066422 141.044632 158.745987 141.147949 159.095093 141.497009 C 159.472214 141.874054 159.547745 142.644455 159.547745 142.644455 L 159.549622 154.271805 C 159.549622 154.271805 159.598801 155.119797 159.999863 155.520767 C 160.215851 155.736725 160.904617 155.973145 160.904617 155.973145 L 164.523651 155.973145"/>
                    <path id="path13" fill="#929292" fill-rule="evenodd" stroke="#ffffff" stroke-width="0.45238" stroke-linecap="round" stroke-linejoin="round" d="M 60.023968 159.139801 L 67.005585 159.139801 L 67.714417 159.592194 L 68.166801 160.422577 L 68.166801 168.76947 L 68.619179 169.54454 L 69.269005 169.996918 L 74.500114 169.996918"/>
                    <path id="path14" fill="#929292" fill-rule="evenodd" stroke="#ffffff" stroke-width="0.45238" stroke-linecap="round" stroke-linejoin="round" d="M 67.262039 159.139801 L 68.166801 158.235046 L 68.166801 157.330292 L 68.166801 142.25354 L 68.619179 141.497009 L 69.627609 141.044632 L 71.989479 141.044632 L 74.500114 141.044632"/>
                </g>
                <g id="Block-copy-5">
                    <path id="path15" fill="#ffffff" fill-rule="evenodd" stroke="#d5d5d5" stroke-width="0.541665" stroke-linecap="round" stroke-linejoin="round" d="M 104.35717 175.044525 C 104.35717 176.753967 105.74295 178.139755 107.452393 178.139755 L 118.904739 178.139755 C 120.614189 178.139755 121.999969 176.753967 121.999969 175.044525 L 121.999969 163.592178 C 121.999969 161.882721 120.614189 160.496948 118.904739 160.496948 L 107.452393 160.496948 C 105.74295 160.496948 104.35717 161.882721 104.35717 163.592178 Z"/>
                    <path id="path16" fill="#f7821a" fill-rule="evenodd" stroke="none" d="M 104.58931 165.356705 C 123.822006 165.34523 104.818466 165.396103 121.76783 165.356705 L 121.76783 163.669556 C 121.76783 161.744736 120.418518 160.651703 118.754051 160.651703 L 107.603081 160.651703 C 105.938622 160.651703 104.58931 161.744736 104.58931 163.669556 Z"/>
                    <text id="text6" xml:space="preserve" x="106.785872" y="173" font-family="Figtree" font-size="3.095229" font-weight="700" fill="#000000" letter-spacing="0.123809">Block</text>
                </g>
                <g id="Block-copy-6">
                    <path id="path17" fill="#ffffff" fill-rule="evenodd" stroke="#d5d5d5" stroke-width="0.541665" stroke-linecap="round" stroke-linejoin="round" d="M 164.976028 161.020752 C 164.976028 162.730209 166.361816 164.115982 168.071259 164.115982 L 179.523605 164.115982 C 181.233063 164.115982 182.618835 162.730209 182.618835 161.020752 L 182.618835 149.568405 C 182.618835 147.858963 181.233063 146.473175 179.523605 146.473175 L 168.071259 146.473175 C 166.361816 146.473175 164.976028 147.858963 164.976028 149.568405 Z"/>
                    <path id="path18" fill="#f7821a" fill-rule="evenodd" stroke="none" d="M 165.208176 151.332947 C 184.440872 151.321457 165.437332 151.372345 182.386688 151.332947 L 182.386688 149.645782 C 182.386688 147.720978 181.037384 146.627945 179.372925 146.627945 L 168.221954 146.627945 C 166.557495 146.627945 165.208176 147.720978 165.208176 149.645782 Z"/>
                    <text id="text7" xml:space="preserve" x="167.785872" y="159" font-family="Figtree" font-size="3.095229" font-weight="700" fill="#000000" letter-spacing="0.123809">Block</text>
                </g>
            </g>
        </g>
        <g id="API---API">
            <path id="path19" fill="#929292" fill-rule="evenodd" stroke="#d5d5d5" stroke-width="3.136498" stroke-linecap="round" stroke-linejoin="round" d="M 81 234.278931 C 81 237.990875 84.009125 241 87.721069 241 L 225.278931 241 C 228.990875 241 232 237.990875 232 234.278931 L 232 131.222549 C 232 127.510605 228.990875 124.50148 225.278931 124.50148 L 87.721069 124.50148 C 84.009125 124.50148 81 127.510605 81 131.222549 Z"/>
            <path id="path20" fill="#ffffff" fill-rule="evenodd" stroke="#ffffff" stroke-width="3.136498" stroke-linecap="round" stroke-linejoin="round" d="M 84.136497 146.912674 C 229.984985 147.122772 65.689194 146.768448 229.311569 146.831879 L 229.311569 132.42247 C 229.311569 130.300049 228.262955 127.189911 223.967697 127.189911 L 89.035042 127.189911 C 84.739792 127.189911 84.136497 129.897537 84.136497 132.019974 Z"/>
            <text id="text8" xml:space="preserve"><tspan x="119.106995" y="143" font-family="Figtree" font-size="14" font-weight="700" fill="#000000" letter-spacing="0.56" xml:space="preserve">A</tspan><tspan font-family="Figtree" font-size="14" font-weight="700" fill="#000000" letter-spacing="0.56" xml:space="preserve">P</tspan><tspan font-family="Figtree" font-size="14" font-weight="700" fill="#000000" letter-spacing="0.56" xml:space="preserve">I</tspan><tspan font-family="Figtree" font-size="14" font-weight="700" fill="#000000" letter-spacing="0.56" xml:space="preserve"> </tspan><tspan font-family="Figtree" font-size="14" font-weight="700" fill="#000000" letter-spacing="0.56" xml:space="preserve">-></tspan><tspan font-family="Figtree" font-size="14" font-weight="700" fill="#000000" letter-spacing="0.56" xml:space="preserve"> </tspan><tspan font-family="Figtree" font-size="14" font-weight="700" fill="#000000" letter-spacing="0.56" xml:space="preserve">A</tspan><tspan font-family="Figtree" font-size="14" font-weight="700" fill="#000000" letter-spacing="0.56" xml:space="preserve">P</tspan><tspan font-family="Figtree" font-size="14" font-weight="700" fill="#000000" letter-spacing="0.56" xml:space="preserve">I</tspan></text>
            <g id="g1">
                <g id="g2">
                    <path id="path21" fill="#ffffff" fill-rule="evenodd" stroke="#d5d5d5" stroke-width="0.541665" stroke-linecap="round" stroke-linejoin="round" d="M 86.381165 203.735031 C 86.381165 205.444473 87.766945 206.830261 89.476395 206.830261 L 100.928741 206.830261 C 102.638184 206.830261 104.023972 205.444473 104.023972 203.735031 L 104.023972 192.282684 C 104.023972 190.573242 102.638184 189.187454 100.928741 189.187454 L 89.476395 189.187454 C 87.766945 189.187454 86.381165 190.573242 86.381165 192.282684 Z"/>
                    <path id="path22" fill="#f7821a" fill-rule="evenodd" stroke="none" d="M 86.613304 194.047226 C 105.846001 194.035736 86.842461 194.086624 103.791824 194.047226 L 103.791824 192.360062 C 103.791824 190.435257 102.442513 189.342224 100.778053 189.342224 L 89.627083 189.342224 C 87.962616 189.342224 86.613304 190.435257 86.613304 192.360062 Z"/>
                    <text id="text9" xml:space="preserve" x="88.785872" y="202" font-family="Figtree" font-size="3.095229" font-weight="700" fill="#000000" letter-spacing="0.123809">Block</text>
                </g>
                <g id="g3">
                    <path id="path23" fill="#ffffff" fill-rule="evenodd" stroke="#d5d5d5" stroke-width="0.541665" stroke-linecap="round" stroke-linejoin="round" d="M 118.952492 186.996994 C 118.952492 188.706436 120.338272 190.092209 122.047722 190.092209 L 133.500076 190.092209 C 135.209518 190.092209 136.595306 188.706436 136.595306 186.996994 L 136.595306 175.544647 C 136.595306 173.83519 135.209518 172.449417 133.500076 172.449417 L 122.047722 172.449417 C 120.338272 172.449417 118.952492 173.83519 118.952492 175.544647 Z"/>
                    <path id="path24" fill="#f7821a" fill-rule="evenodd" stroke="none" d="M 119.184639 177.309174 C 138.417328 177.297699 119.413795 177.348572 136.363159 177.309174 L 136.363159 175.622025 C 136.363159 173.697205 135.01384 172.604172 133.34938 172.604172 L 122.19841 172.604172 C 120.533951 172.604172 119.184639 173.697205 119.184639 175.622025 Z"/>
                    <text id="text10" xml:space="preserve" x="121.785872" y="185" font-family="Figtree" font-size="3.095229" font-weight="700" fill="#000000" letter-spacing="0.123809">Block</text>
                </g>
                <g id="g4">
                    <path id="path25" fill="#ffffff" fill-rule="evenodd" stroke="#d5d5d5" stroke-width="0.541665" stroke-linecap="round" stroke-linejoin="round" d="M 118.952492 215.044525 C 118.952492 216.753967 120.338272 218.139755 122.047722 218.139755 L 133.500076 218.139755 C 135.209518 218.139755 136.595306 216.753967 136.595306 215.044525 L 136.595306 203.592178 C 136.595306 201.882721 135.209518 200.496948 133.500076 200.496948 L 122.047722 200.496948 C 120.338272 200.496948 118.952492 201.882721 118.952492 203.592178 Z"/>
                    <path id="path26" fill="#f7821a" fill-rule="evenodd" stroke="none" d="M 119.184639 205.356705 C 138.417328 205.34523 119.413795 205.396103 136.363159 205.356705 L 136.363159 203.669556 C 136.363159 201.744736 135.01384 200.651703 133.34938 200.651703 L 122.19841 200.651703 C 120.533951 200.651703 119.184639 201.744736 119.184639 203.669556 Z"/>
                    <text id="text11" xml:space="preserve" x="121.785872" y="213" font-family="Figtree" font-size="3.095229" font-weight="700" fill="#000000" letter-spacing="0.123809">Block</text>
                </g>
                <g id="g5">
                    <path id="path27" fill="#ffffff" fill-rule="evenodd" stroke="#d5d5d5" stroke-width="0.541665" stroke-linecap="round" stroke-linejoin="round" d="M 148.357162 186.996994 C 148.357162 188.706436 149.74295 190.092209 151.452393 190.092209 L 162.904739 190.092209 C 164.614197 190.092209 165.999969 188.706436 165.999969 186.996994 L 165.999969 175.544647 C 165.999969 173.83519 164.614197 172.449417 162.904739 172.449417 L 151.452393 172.449417 C 149.74295 172.449417 148.357162 173.83519 148.357162 175.544647 Z"/>
                    <path id="path28" fill="#f7821a" fill-rule="evenodd" stroke="none" d="M 148.58931 177.309174 C 167.822006 177.297699 148.818466 177.348572 165.767822 177.309174 L 165.767822 175.622025 C 165.767822 173.697205 164.418518 172.604172 162.754059 172.604172 L 151.603088 172.604172 C 149.938629 172.604172 148.58931 173.697205 148.58931 175.622025 Z"/>
                    <text id="text12" xml:space="preserve" x="150.785872" y="185" font-family="Figtree" font-size="3.095229" font-weight="700" fill="#000000" letter-spacing="0.123809">Block</text>
                </g>
                <g id="g6">
                    <path id="path29" fill="#ffffff" fill-rule="evenodd" stroke="#d5d5d5" stroke-width="0.541665" stroke-linecap="round" stroke-linejoin="round" d="M 177.309464 186.544601 C 177.309464 188.254059 178.695236 189.639832 180.404694 189.639832 L 191.85704 189.639832 C 193.566483 189.639832 194.952271 188.254059 194.952271 186.544601 L 194.952271 175.092255 C 194.952271 173.382813 193.566483 171.997025 191.85704 171.997025 L 180.404694 171.997025 C 178.695236 171.997025 177.309464 173.382813 177.309464 175.092255 Z"/>
                    <path id="path30" fill="#f7821a" fill-rule="evenodd" stroke="none" d="M 177.541611 176.856796 C 196.774292 176.845322 177.770767 176.896194 194.720123 176.856796 L 194.720123 175.169647 C 194.720123 173.244827 193.370804 172.151794 191.706345 172.151794 L 180.555374 172.151794 C 178.890915 172.151794 177.541611 173.244827 177.541611 175.169647 Z"/>
                    <text id="text13" xml:space="preserve" x="179.785872" y="185" font-family="Figtree" font-size="3.095229" font-weight="700" fill="#000000" letter-spacing="0.123809">Block</text>
                </g>
                <g id="g7">
                    <path id="path31" fill="#929292" fill-rule="evenodd" stroke="#ffffff" stroke-width="0.678654" stroke-linecap="round" stroke-linejoin="round" d="M 137.047684 181.044632 L 147.904785 181.044632"/>
                    <path id="path32" fill="#929292" fill-rule="evenodd" stroke="#ffffff" stroke-width="0.678654" stroke-linecap="round" stroke-linejoin="round" d="M 166.452347 181.044632 L 177.309464 181.044632"/>
                    <path id="path33" fill="#929292" fill-rule="evenodd" stroke="#ffffff" stroke-width="0.678654" stroke-linecap="round" stroke-linejoin="round" d="M 137.047684 210.449295 L 147.904785 210.449295"/>
                    <path id="path34" fill="#929292" fill-rule="evenodd" stroke="#ffffff" stroke-width="0.45238" stroke-linecap="round" stroke-linejoin="round" d="M 166.452347 210.449295 C 166.452347 210.449295 188.445175 210.401886 193.595123 210.449295 C 194.769989 210.460114 194.591141 211.044586 195.404648 209.996918 C 196.232574 208.930664 195.63942 202.485962 195.857025 198.687424 C 195.990387 196.359299 196.259766 196.012726 197.66655 195.973145 C 198.850952 195.939835 201.436371 195.973145 202.642715 195.973145 C 204.603027 195.973145 208.523651 195.973145 208.523651 195.973145"/>
                    <path id="path35" fill="#929292" fill-rule="evenodd" stroke="#ffffff" stroke-width="0.45238" stroke-linecap="round" stroke-linejoin="round" d="M 195.404648 181.044632 L 202.066422 181.044632 C 202.066422 181.044632 202.745987 181.147949 203.095093 181.497009 C 203.472214 181.874054 203.547745 182.644455 203.547745 182.644455 L 203.549622 194.271805 C 203.549622 194.271805 203.598801 195.119797 203.999863 195.520767 C 204.215851 195.736725 204.904617 195.973145 204.904617 195.973145 L 208.523651 195.973145"/>
                    <path id="path36" fill="#929292" fill-rule="evenodd" stroke="#ffffff" stroke-width="0.45238" stroke-linecap="round" stroke-linejoin="round" d="M 104.023964 199.139801 L 111.005585 199.139801 L 111.714417 199.592194 L 112.166801 200.422577 L 112.166801 208.76947 L 112.619179 209.54454 L 113.269005 209.996918 L 118.500114 209.996918"/>
                    <path id="path37" fill="#929292" fill-rule="evenodd" stroke="#ffffff" stroke-width="0.45238" stroke-linecap="round" stroke-linejoin="round" d="M 111.262039 199.139801 L 112.166801 198.235046 L 112.166801 197.330292 L 112.166801 182.25354 L 112.619179 181.497009 L 113.627609 181.044632 L 115.989479 181.044632 L 118.500114 181.044632"/>
                </g>
                <g id="g8">
                    <path id="path38" fill="#ffffff" fill-rule="evenodd" stroke="#d5d5d5" stroke-width="0.541665" stroke-linecap="round" stroke-linejoin="round" d="M 148.357162 215.044525 C 148.357162 216.753967 149.74295 218.139755 151.452393 218.139755 L 162.904739 218.139755 C 164.614197 218.139755 165.999969 216.753967 165.999969 215.044525 L 165.999969 203.592178 C 165.999969 201.882721 164.614197 200.496948 162.904739 200.496948 L 151.452393 200.496948 C 149.74295 200.496948 148.357162 201.882721 148.357162 203.592178 Z"/>
                    <path id="path39" fill="#f7821a" fill-rule="evenodd" stroke="none" d="M 148.58931 205.356705 C 167.822006 205.34523 148.818466 205.396103 165.767822 205.356705 L 165.767822 203.669556 C 165.767822 201.744736 164.418518 200.651703 162.754059 200.651703 L 151.603088 200.651703 C 149.938629 200.651703 148.58931 201.744736 148.58931 203.669556 Z"/>
                    <text id="text14" xml:space="preserve" x="150.785872" y="213" font-family="Figtree" font-size="3.095229" font-weight="700" fill="#000000" letter-spacing="0.123809">Block</text>
                </g>
                <g id="g9">
                    <path id="path40" fill="#ffffff" fill-rule="evenodd" stroke="#d5d5d5" stroke-width="0.541665" stroke-linecap="round" stroke-linejoin="round" d="M 208.976028 201.020752 C 208.976028 202.730209 210.361816 204.115982 212.071259 204.115982 L 223.523605 204.115982 C 225.233063 204.115982 226.618835 202.730209 226.618835 201.020752 L 226.618835 189.568405 C 226.618835 187.858963 225.233063 186.473175 223.523605 186.473175 L 212.071259 186.473175 C 210.361816 186.473175 208.976028 187.858963 208.976028 189.568405 Z"/>
                    <path id="path41" fill="#f7821a" fill-rule="evenodd" stroke="none" d="M 209.208176 191.332947 C 228.440872 191.321457 209.437332 191.372345 226.386688 191.332947 L 226.386688 189.645782 C 226.386688 187.720978 225.037384 186.627945 223.372925 186.627945 L 212.221954 186.627945 C 210.557495 186.627945 209.208176 187.720978 209.208176 189.645782 Z"/>
                    <text id="text15" xml:space="preserve" x="211.785872" y="199" font-family="Figtree" font-size="3.095229" font-weight="700" fill="#000000" letter-spacing="0.123809">Block</text>
                </g>
            </g>
        </g>
        <g id="ERP---CRM">
            <path id="path42" fill="#929292" fill-rule="evenodd" stroke="#d5d5d5" stroke-width="3.136498" stroke-linecap="round" stroke-linejoin="round" d="M 124 276.278931 C 124 279.990875 127.009125 283 130.721069 283 L 268.278931 283 C 271.990875 283 275 279.990875 275 276.278931 L 275 173.222549 C 275 169.510605 271.990875 166.50148 268.278931 166.50148 L 130.721069 166.50148 C 127.009125 166.50148 124 169.510605 124 173.222549 Z"/>
            <path id="path43" fill="#ffffff" fill-rule="evenodd" stroke="#ffffff" stroke-width="3.136498" stroke-linecap="round" stroke-linejoin="round" d="M 127.136497 188.912674 C 272.984985 189.122772 108.689194 188.768448 272.311584 188.831879 L 272.311584 174.42247 C 272.311584 172.300049 271.262939 169.189911 266.967712 169.189911 L 132.035049 169.189911 C 127.739792 169.189911 127.136497 171.897537 127.136497 174.019974 Z"/>
            <text id="text16" xml:space="preserve"><tspan x="156.140081" y="185" font-family="Figtree" font-size="14" font-weight="700" fill="#000000" letter-spacing="0.56" xml:space="preserve">E</tspan><tspan font-family="Figtree" font-size="14" font-weight="700" fill="#000000" letter-spacing="0.56" xml:space="preserve">R</tspan><tspan font-family="Figtree" font-size="14" font-weight="700" fill="#000000" letter-spacing="0.56" xml:space="preserve">P </tspan><tspan font-family="Figtree" font-size="14" font-weight="700" fill="#000000" letter-spacing="0.56" xml:space="preserve">-</tspan><tspan font-family="Figtree" font-size="14" font-weight="700" fill="#000000" letter-spacing="0.56" xml:space="preserve">></tspan><tspan font-family="Figtree" font-size="14" font-weight="700" fill="#000000" letter-spacing="0.56" xml:space="preserve"> </tspan><tspan font-family="Figtree" font-size="14" font-weight="700" fill="#000000" letter-spacing="0.56" xml:space="preserve">C</tspan><tspan font-family="Figtree" font-size="14" font-weight="700" fill="#000000" letter-spacing="0.56" xml:space="preserve">R</tspan><tspan font-family="Figtree" font-size="14" font-weight="700" fill="#000000" letter-spacing="0.56" xml:space="preserve">M</tspan></text>
            <g id="g10">
                <g id="g11">
                    <path id="path44" fill="#ffffff" fill-rule="evenodd" stroke="#d5d5d5" stroke-width="0.541665" stroke-linecap="round" stroke-linejoin="round" d="M 129.381165 245.735031 C 129.381165 247.444489 130.766937 248.830261 132.476395 248.830261 L 143.928741 248.830261 C 145.638184 248.830261 147.023972 247.444489 147.023972 245.735031 L 147.023972 234.282684 C 147.023972 232.573242 145.638184 231.187454 143.928741 231.187454 L 132.476395 231.187454 C 130.766937 231.187454 129.381165 232.573242 129.381165 234.282684 Z"/>
                    <path id="path45" fill="#f7821a" fill-rule="evenodd" stroke="none" d="M 129.613312 236.047211 C 148.845993 236.035736 129.842468 236.086609 146.791824 236.047211 L 146.791824 234.360077 C 146.791824 232.435242 145.442505 231.342224 143.778046 231.342224 L 132.627075 231.342224 C 130.962616 231.342224 129.613312 232.435242 129.613312 234.360077 Z"/>
                    <text id="text17" xml:space="preserve" x="131.785872" y="244" font-family="Figtree" font-size="3.095229" font-weight="700" fill="#000000" letter-spacing="0.123809">Block</text>
                </g>
                <g id="g12">
                    <path id="path46" fill="#ffffff" fill-rule="evenodd" stroke="#d5d5d5" stroke-width="0.541665" stroke-linecap="round" stroke-linejoin="round" d="M 161.952499 228.996979 C 161.952499 230.706436 163.338272 232.092224 165.047729 232.092224 L 176.500076 232.092224 C 178.209518 232.092224 179.595306 230.706436 179.595306 228.996979 L 179.595306 217.544647 C 179.595306 215.83519 178.209518 214.449417 176.500076 214.449417 L 165.047729 214.449417 C 163.338272 214.449417 161.952499 215.83519 161.952499 217.544647 Z"/>
                    <path id="path47" fill="#f7821a" fill-rule="evenodd" stroke="none" d="M 162.184631 219.309174 C 181.417328 219.297699 162.413788 219.348572 179.363159 219.309174 L 179.363159 217.622025 C 179.363159 215.697205 178.01384 214.604172 176.34938 214.604172 L 165.19841 214.604172 C 163.533951 214.604172 162.184631 215.697205 162.184631 217.622025 Z"/>
                    <text id="text18" xml:space="preserve" x="164.785872" y="227" font-family="Figtree" font-size="3.095229" font-weight="700" fill="#000000" letter-spacing="0.123809">Block</text>
                </g>
                <g id="g13">
                    <path id="path48" fill="#ffffff" fill-rule="evenodd" stroke="#d5d5d5" stroke-width="0.541665" stroke-linecap="round" stroke-linejoin="round" d="M 161.952499 257.044525 C 161.952499 258.753967 163.338272 260.13974 165.047729 260.13974 L 176.500076 260.13974 C 178.209518 260.13974 179.595306 258.753967 179.595306 257.044525 L 179.595306 245.592178 C 179.595306 243.882721 178.209518 242.496948 176.500076 242.496948 L 165.047729 242.496948 C 163.338272 242.496948 161.952499 243.882721 161.952499 245.592178 Z"/>
                    <path id="path49" fill="#f7821a" fill-rule="evenodd" stroke="none" d="M 162.184631 247.35672 C 181.417328 247.34523 162.413788 247.396118 179.363159 247.35672 L 179.363159 245.669556 C 179.363159 243.744751 178.01384 242.651703 176.34938 242.651703 L 165.19841 242.651703 C 163.533951 242.651703 162.184631 243.744751 162.184631 245.669556 Z"/>
                    <text id="text19" xml:space="preserve" x="164.785872" y="255" font-family="Figtree" font-size="3.095229" font-weight="700" fill="#000000" letter-spacing="0.123809">Block</text>
                </g>
                <g id="g14">
                    <path id="path50" fill="#ffffff" fill-rule="evenodd" stroke="#d5d5d5" stroke-width="0.541665" stroke-linecap="round" stroke-linejoin="round" d="M 191.357162 228.996979 C 191.357162 230.706436 192.74295 232.092224 194.452393 232.092224 L 205.904739 232.092224 C 207.614197 232.092224 208.999969 230.706436 208.999969 228.996979 L 208.999969 217.544647 C 208.999969 215.83519 207.614197 214.449417 205.904739 214.449417 L 194.452393 214.449417 C 192.74295 214.449417 191.357162 215.83519 191.357162 217.544647 Z"/>
                    <path id="path51" fill="#f7821a" fill-rule="evenodd" stroke="none" d="M 191.58931 219.309174 C 210.822006 219.297699 191.818466 219.348572 208.767822 219.309174 L 208.767822 217.622025 C 208.767822 215.697205 207.418518 214.604172 205.754059 214.604172 L 194.603088 214.604172 C 192.938629 214.604172 191.58931 215.697205 191.58931 217.622025 Z"/>
                    <text id="text20" xml:space="preserve" x="193.785872" y="227" font-family="Figtree" font-size="3.095229" font-weight="700" fill="#000000" letter-spacing="0.123809">Block</text>
                </g>
                <g id="g15">
                    <path id="path52" fill="#ffffff" fill-rule="evenodd" stroke="#d5d5d5" stroke-width="0.541665" stroke-linecap="round" stroke-linejoin="round" d="M 220.309464 228.544617 C 220.309464 230.254059 221.695236 231.639832 223.404694 231.639832 L 234.85704 231.639832 C 236.566483 231.639832 237.952271 230.254059 237.952271 228.544617 L 237.952271 217.092255 C 237.952271 215.382813 236.566483 213.997025 234.85704 213.997025 L 223.404694 213.997025 C 221.695236 213.997025 220.309464 215.382813 220.309464 217.092255 Z"/>
                    <path id="path53" fill="#f7821a" fill-rule="evenodd" stroke="none" d="M 220.541611 218.856796 C 239.774292 218.845322 220.770767 218.896194 237.720123 218.856796 L 237.720123 217.169647 C 237.720123 215.244827 236.370804 214.151794 234.706345 214.151794 L 223.555374 214.151794 C 221.890915 214.151794 220.541611 215.244827 220.541611 217.169647 Z"/>
                    <text id="text21" xml:space="preserve" x="222.785872" y="227" font-family="Figtree" font-size="3.095229" font-weight="700" fill="#000000" letter-spacing="0.123809">Block</text>
                </g>
                <g id="g16">
                    <path id="path54" fill="#929292" fill-rule="evenodd" stroke="#ffffff" stroke-width="0.678654" stroke-linecap="round" stroke-linejoin="round" d="M 180.047684 223.044617 L 190.904785 223.044617"/>
                    <path id="path55" fill="#929292" fill-rule="evenodd" stroke="#ffffff" stroke-width="0.678654" stroke-linecap="round" stroke-linejoin="round" d="M 209.452347 223.044617 L 220.309464 223.044617"/>
                    <path id="path56" fill="#929292" fill-rule="evenodd" stroke="#ffffff" stroke-width="0.678654" stroke-linecap="round" stroke-linejoin="round" d="M 180.047684 252.449295 L 190.904785 252.449295"/>
                    <path id="path57" fill="#929292" fill-rule="evenodd" stroke="#ffffff" stroke-width="0.45238" stroke-linecap="round" stroke-linejoin="round" d="M 209.452347 252.449295 C 209.452347 252.449295 231.445175 252.401886 236.595123 252.449295 C 237.769989 252.460114 237.591141 253.044586 238.404648 251.996918 C 239.232574 250.930664 238.63942 244.485962 238.857025 240.687439 C 238.990387 238.359283 239.259766 238.012726 240.66655 237.973145 C 241.850952 237.939835 244.436371 237.973145 245.642715 237.973145 C 247.603027 237.973145 251.523651 237.973145 251.523651 237.973145"/>
                    <path id="path58" fill="#929292" fill-rule="evenodd" stroke="#ffffff" stroke-width="0.45238" stroke-linecap="round" stroke-linejoin="round" d="M 238.404648 223.044617 L 245.066422 223.044617 C 245.066422 223.044617 245.745987 223.147949 246.095093 223.497009 C 246.472214 223.874054 246.547745 224.64444 246.547745 224.64444 L 246.549622 236.27179 C 246.549622 236.27179 246.598801 237.119781 246.999863 237.520782 C 247.215851 237.736725 247.904617 237.973145 247.904617 237.973145 L 251.523651 237.973145"/>
                    <path id="path59" fill="#929292" fill-rule="evenodd" stroke="#ffffff" stroke-width="0.45238" stroke-linecap="round" stroke-linejoin="round" d="M 147.023972 241.139801 L 154.005585 241.139801 L 154.714417 241.592194 L 155.166794 242.422577 L 155.166794 250.76947 L 155.619186 251.54454 L 156.268997 251.996918 L 161.500107 251.996918"/>
                    <path id="path60" fill="#929292" fill-rule="evenodd" stroke="#ffffff" stroke-width="0.45238" stroke-linecap="round" stroke-linejoin="round" d="M 154.262039 241.139801 L 155.166794 240.235046 L 155.166794 239.330292 L 155.166794 224.25354 L 155.619186 223.497009 L 156.627609 223.044617 L 158.989471 223.044617 L 161.500107 223.044617"/>
                </g>
                <g id="g17">
                    <path id="path61" fill="#ffffff" fill-rule="evenodd" stroke="#d5d5d5" stroke-width="0.541665" stroke-linecap="round" stroke-linejoin="round" d="M 191.357162 257.044525 C 191.357162 258.753967 192.74295 260.13974 194.452393 260.13974 L 205.904739 260.13974 C 207.614197 260.13974 208.999969 258.753967 208.999969 257.044525 L 208.999969 245.592178 C 208.999969 243.882721 207.614197 242.496948 205.904739 242.496948 L 194.452393 242.496948 C 192.74295 242.496948 191.357162 243.882721 191.357162 245.592178 Z"/>
                    <path id="path62" fill="#f7821a" fill-rule="evenodd" stroke="none" d="M 191.58931 247.35672 C 210.822006 247.34523 191.818466 247.396118 208.767822 247.35672 L 208.767822 245.669556 C 208.767822 243.744751 207.418518 242.651703 205.754059 242.651703 L 194.603088 242.651703 C 192.938629 242.651703 191.58931 243.744751 191.58931 245.669556 Z"/>
                    <text id="text22" xml:space="preserve" x="193.785872" y="255" font-family="Figtree" font-size="3.095229" font-weight="700" fill="#000000" letter-spacing="0.123809">Block</text>
                </g>
                <g id="g18">
                    <path id="path63" fill="#ffffff" fill-rule="evenodd" stroke="#d5d5d5" stroke-width="0.541665" stroke-linecap="round" stroke-linejoin="round" d="M 251.976028 243.020752 C 251.976028 244.730194 253.361816 246.115982 255.071259 246.115982 L 266.523621 246.115982 C 268.233063 246.115982 269.618835 244.730194 269.618835 243.020752 L 269.618835 231.568405 C 269.618835 229.858963 268.233063 228.473175 266.523621 228.473175 L 255.071259 228.473175 C 253.361816 228.473175 251.976028 229.858963 251.976028 231.568405 Z"/>
                    <path id="path64" fill="#f7821a" fill-rule="evenodd" stroke="none" d="M 252.208176 233.332947 C 271.440857 233.321472 252.437332 233.372345 269.386688 233.332947 L 269.386688 231.645782 C 269.386688 229.720978 268.037384 228.62793 266.372925 228.62793 L 255.221954 228.62793 C 253.557495 228.62793 252.208176 229.720978 252.208176 231.645782 Z"/>
                    <text id="text23" xml:space="preserve" x="254.785872" y="241" font-family="Figtree" font-size="3.095229" font-weight="700" fill="#000000" letter-spacing="0.123809">Block</text>
                </g>
            </g>
        </g>
        <g id="HR---Accounts">
            <path id="path65" fill="#929292" fill-rule="evenodd" stroke="#d5d5d5" stroke-width="3.136498" stroke-linecap="round" stroke-linejoin="round" d="M 167 319.278931 C 167 322.990875 170.009125 326 173.721069 326 L 311.278931 326 C 314.990875 326 318 322.990875 318 319.278931 L 318 216.222549 C 318 212.510605 314.990875 209.50148 311.278931 209.50148 L 173.721069 209.50148 C 170.009125 209.50148 167 212.510605 167 216.222549 Z"/>
            <path id="path66" fill="#ffffff" fill-rule="evenodd" stroke="#ffffff" stroke-width="3.136498" stroke-linecap="round" stroke-linejoin="round" d="M 170.136505 231.912659 C 315.984985 232.122772 151.689194 231.768433 315.311584 231.831879 L 315.311584 217.42247 C 315.311584 215.300049 314.262939 212.189911 309.967712 212.189911 L 175.035049 212.189911 C 170.739792 212.189911 170.136505 214.897537 170.136505 217.019974 Z"/>
            <text id="text24" xml:space="preserve"><tspan x="186.040325" y="228" font-family="Figtree" font-size="14" font-weight="700" fill="#000000" letter-spacing="0.56" xml:space="preserve">HR</tspan><tspan font-family="Figtree" font-size="14" font-weight="700" fill="#000000" letter-spacing="0.56" xml:space="preserve"> -</tspan><tspan font-family="Figtree" font-size="14" font-weight="700" fill="#000000" letter-spacing="0.56" xml:space="preserve">> </tspan><tspan font-family="Figtree" font-size="14" font-weight="700" fill="#000000" letter-spacing="0.56" xml:space="preserve">A</tspan><tspan font-family="Figtree" font-size="14" font-weight="700" fill="#000000" letter-spacing="0.56" xml:space="preserve">c</tspan><tspan font-family="Figtree" font-size="14" font-weight="700" fill="#000000" letter-spacing="0.56" xml:space="preserve">cou</tspan><tspan font-family="Figtree" font-size="14" font-weight="700" fill="#000000" letter-spacing="0.56" xml:space="preserve">n</tspan><tspan font-family="Figtree" font-size="14" font-weight="700" fill="#000000" letter-spacing="0.56" xml:space="preserve">t</tspan><tspan font-family="Figtree" font-size="14" font-weight="700" fill="#000000" letter-spacing="0.56" xml:space="preserve">s</tspan></text>
            <g id="g19">
                <g id="g20">
                    <path id="path67" fill="#ffffff" fill-rule="evenodd" stroke="#d5d5d5" stroke-width="0.541665" stroke-linecap="round" stroke-linejoin="round" d="M 172.381165 288.735046 C 172.381165 290.444489 173.766937 291.830261 175.476395 291.830261 L 186.928741 291.830261 C 188.638184 291.830261 190.023972 290.444489 190.023972 288.735046 L 190.023972 277.282684 C 190.023972 275.573242 188.638184 274.187439 186.928741 274.187439 L 175.476395 274.187439 C 173.766937 274.187439 172.381165 275.573242 172.381165 277.282684 Z"/>
                    <path id="path68" fill="#f7821a" fill-rule="evenodd" stroke="none" d="M 172.613312 279.047211 C 191.845993 279.035736 172.842468 279.086609 189.791824 279.047211 L 189.791824 277.360077 C 189.791824 275.435242 188.442505 274.342224 186.778046 274.342224 L 175.627075 274.342224 C 173.962616 274.342224 172.613312 275.435242 172.613312 277.360077 Z"/>
                    <text id="text25" xml:space="preserve" x="174.785872" y="287" font-family="Figtree" font-size="3.095229" font-weight="700" fill="#000000" letter-spacing="0.123809">Block</text>
                </g>
                <g id="g21">
                    <path id="path69" fill="#ffffff" fill-rule="evenodd" stroke="#d5d5d5" stroke-width="0.541665" stroke-linecap="round" stroke-linejoin="round" d="M 204.952499 271.996979 C 204.952499 273.706421 206.338272 275.092224 208.047729 275.092224 L 219.500076 275.092224 C 221.209518 275.092224 222.595306 273.706421 222.595306 271.996979 L 222.595306 260.544647 C 222.595306 258.835205 221.209518 257.449402 219.500076 257.449402 L 208.047729 257.449402 C 206.338272 257.449402 204.952499 258.835205 204.952499 260.544647 Z"/>
                    <path id="path70" fill="#f7821a" fill-rule="evenodd" stroke="none" d="M 205.184631 262.309174 C 224.417328 262.297699 205.413788 262.348572 222.363159 262.309174 L 222.363159 260.622009 C 222.363159 258.697205 221.01384 257.604187 219.34938 257.604187 L 208.19841 257.604187 C 206.533951 257.604187 205.184631 258.697205 205.184631 260.622009 Z"/>
                    <text id="text26" xml:space="preserve" x="207.785872" y="270" font-family="Figtree" font-size="3.095229" font-weight="700" fill="#000000" letter-spacing="0.123809">Block</text>
                </g>
                <g id="g22">
                    <path id="path71" fill="#ffffff" fill-rule="evenodd" stroke="#d5d5d5" stroke-width="0.541665" stroke-linecap="round" stroke-linejoin="round" d="M 204.952499 300.044525 C 204.952499 301.753967 206.338272 303.13974 208.047729 303.13974 L 219.500076 303.13974 C 221.209518 303.13974 222.595306 301.753967 222.595306 300.044525 L 222.595306 288.592163 C 222.595306 286.882721 221.209518 285.496948 219.500076 285.496948 L 208.047729 285.496948 C 206.338272 285.496948 204.952499 286.882721 204.952499 288.592163 Z"/>
                    <path id="path72" fill="#f7821a" fill-rule="evenodd" stroke="none" d="M 205.184631 290.35672 C 224.417328 290.345215 205.413788 290.396118 222.363159 290.35672 L 222.363159 288.669556 C 222.363159 286.744751 221.01384 285.651703 219.34938 285.651703 L 208.19841 285.651703 C 206.533951 285.651703 205.184631 286.744751 205.184631 288.669556 Z"/>
                    <text id="text27" xml:space="preserve" x="207.785872" y="298" font-family="Figtree" font-size="3.095229" font-weight="700" fill="#000000" letter-spacing="0.123809">Block</text>
                </g>
                <g id="g23">
                    <path id="path73" fill="#ffffff" fill-rule="evenodd" stroke="#d5d5d5" stroke-width="0.541665" stroke-linecap="round" stroke-linejoin="round" d="M 234.357162 271.996979 C 234.357162 273.706421 235.74295 275.092224 237.452393 275.092224 L 248.904739 275.092224 C 250.614197 275.092224 251.999969 273.706421 251.999969 271.996979 L 251.999969 260.544647 C 251.999969 258.835205 250.614197 257.449402 248.904739 257.449402 L 237.452393 257.449402 C 235.74295 257.449402 234.357162 258.835205 234.357162 260.544647 Z"/>
                    <path id="path74" fill="#f7821a" fill-rule="evenodd" stroke="none" d="M 234.58931 262.309174 C 253.822006 262.297699 234.818466 262.348572 251.767822 262.309174 L 251.767822 260.622009 C 251.767822 258.697205 250.418518 257.604187 248.754059 257.604187 L 237.603088 257.604187 C 235.938629 257.604187 234.58931 258.697205 234.58931 260.622009 Z"/>
                    <text id="text28" xml:space="preserve" x="236.785872" y="270" font-family="Figtree" font-size="3.095229" font-weight="700" fill="#000000" letter-spacing="0.123809">Block</text>
                </g>
                <g id="g24">
                    <path id="path75" fill="#ffffff" fill-rule="evenodd" stroke="#d5d5d5" stroke-width="0.541665" stroke-linecap="round" stroke-linejoin="round" d="M 263.309448 271.544617 C 263.309448 273.254059 264.695251 274.639832 266.404694 274.639832 L 277.857025 274.639832 C 279.566498 274.639832 280.952271 273.254059 280.952271 271.544617 L 280.952271 260.092255 C 280.952271 258.382813 279.566498 256.99704 277.857025 256.99704 L 266.404694 256.99704 C 264.695251 256.99704 263.309448 258.382813 263.309448 260.092255 Z"/>
                    <path id="path76" fill="#f7821a" fill-rule="evenodd" stroke="none" d="M 263.541595 261.856812 C 282.774292 261.845306 263.770752 261.896179 280.720123 261.856812 L 280.720123 260.169647 C 280.720123 258.244812 279.370819 257.151794 277.70636 257.151794 L 266.555389 257.151794 C 264.89093 257.151794 263.541595 258.244812 263.541595 260.169647 Z"/>
                    <text id="text29" xml:space="preserve" x="265.785872" y="270" font-family="Figtree" font-size="3.095229" font-weight="700" fill="#000000" letter-spacing="0.123809">Block</text>
                </g>
                <g id="g25">
                    <path id="path77" fill="#929292" fill-rule="evenodd" stroke="#ffffff" stroke-width="0.678654" stroke-linecap="round" stroke-linejoin="round" d="M 223.047684 266.044617 L 233.904785 266.044617"/>
                    <path id="path78" fill="#929292" fill-rule="evenodd" stroke="#ffffff" stroke-width="0.678654" stroke-linecap="round" stroke-linejoin="round" d="M 252.452347 266.044617 L 263.309448 266.044617"/>
                    <path id="path79" fill="#929292" fill-rule="evenodd" stroke="#ffffff" stroke-width="0.678654" stroke-linecap="round" stroke-linejoin="round" d="M 223.047684 295.44931 L 233.904785 295.44931"/>
                    <path id="path80" fill="#929292" fill-rule="evenodd" stroke="#ffffff" stroke-width="0.45238" stroke-linecap="round" stroke-linejoin="round" d="M 252.452347 295.44931 C 252.452347 295.44931 274.44519 295.401886 279.595123 295.44931 C 280.769989 295.460114 280.591125 296.044586 281.404633 294.996918 C 282.232574 293.930664 281.639435 287.485962 281.857025 283.687439 C 281.990387 281.359283 282.259766 281.012726 283.666534 280.973145 C 284.850952 280.939819 287.436371 280.973145 288.642731 280.973145 C 290.603027 280.973145 294.523651 280.973145 294.523651 280.973145"/>
                    <path id="path81" fill="#929292" fill-rule="evenodd" stroke="#ffffff" stroke-width="0.45238" stroke-linecap="round" stroke-linejoin="round" d="M 281.404633 266.044617 L 288.066406 266.044617 C 288.066406 266.044617 288.745972 266.147949 289.095093 266.497009 C 289.472198 266.874054 289.547729 267.64444 289.547729 267.64444 L 289.549622 279.27179 C 289.549622 279.27179 289.598816 280.119781 289.999847 280.520782 C 290.215851 280.736725 290.904602 280.973145 290.904602 280.973145 L 294.523651 280.973145"/>
                    <path id="path82" fill="#929292" fill-rule="evenodd" stroke="#ffffff" stroke-width="0.45238" stroke-linecap="round" stroke-linejoin="round" d="M 190.023972 284.139801 L 197.005585 284.139801 L 197.714417 284.592194 L 198.166794 285.422577 L 198.166794 293.76947 L 198.619186 294.544556 L 199.268997 294.996918 L 204.500107 294.996918"/>
                    <path id="path83" fill="#929292" fill-rule="evenodd" stroke="#ffffff" stroke-width="0.45238" stroke-linecap="round" stroke-linejoin="round" d="M 197.262039 284.139801 L 198.166794 283.235046 L 198.166794 282.330292 L 198.166794 267.25354 L 198.619186 266.497009 L 199.627609 266.044617 L 201.989471 266.044617 L 204.500107 266.044617"/>
                </g>
                <g id="g26">
                    <path id="path84" fill="#ffffff" fill-rule="evenodd" stroke="#d5d5d5" stroke-width="0.541665" stroke-linecap="round" stroke-linejoin="round" d="M 234.357162 300.044525 C 234.357162 301.753967 235.74295 303.13974 237.452393 303.13974 L 248.904739 303.13974 C 250.614197 303.13974 251.999969 301.753967 251.999969 300.044525 L 251.999969 288.592163 C 251.999969 286.882721 250.614197 285.496948 248.904739 285.496948 L 237.452393 285.496948 C 235.74295 285.496948 234.357162 286.882721 234.357162 288.592163 Z"/>
                    <path id="path85" fill="#f7821a" fill-rule="evenodd" stroke="none" d="M 234.58931 290.35672 C 253.822006 290.345215 234.818466 290.396118 251.767822 290.35672 L 251.767822 288.669556 C 251.767822 286.744751 250.418518 285.651703 248.754059 285.651703 L 237.603088 285.651703 C 235.938629 285.651703 234.58931 286.744751 234.58931 288.669556 Z"/>
                    <text id="text30" xml:space="preserve" x="236.785872" y="298" font-family="Figtree" font-size="3.095229" font-weight="700" fill="#000000" letter-spacing="0.123809">Block</text>
                </g>
                <g id="g27">
                    <path id="path86" fill="#ffffff" fill-rule="evenodd" stroke="#d5d5d5" stroke-width="0.541665" stroke-linecap="round" stroke-linejoin="round" d="M 294.976044 286.020752 C 294.976044 287.730194 296.361816 289.115967 298.071259 289.115967 L 309.523621 289.115967 C 311.233063 289.115967 312.618835 287.730194 312.618835 286.020752 L 312.618835 274.56842 C 312.618835 272.858948 311.233063 271.473175 309.523621 271.473175 L 298.071259 271.473175 C 296.361816 271.473175 294.976044 272.858948 294.976044 274.56842 Z"/>
                    <path id="path87" fill="#f7821a" fill-rule="evenodd" stroke="none" d="M 295.20816 276.332947 C 314.440857 276.321472 295.437347 276.372345 312.386688 276.332947 L 312.386688 274.645782 C 312.386688 272.720978 311.037384 271.62793 309.372925 271.62793 L 298.221954 271.62793 C 296.557495 271.62793 295.20816 272.720978 295.20816 274.645782 Z"/>
                    <text id="text31" xml:space="preserve" x="297.785872" y="284" font-family="Figtree" font-size="3.095229" font-weight="700" fill="#000000" letter-spacing="0.123809">Block</text>
                </g>
            </g>
        </g>
    </g>
</svg>
