<svg version="1.1" xmlns="http://www.w3.org/2000/svg" style="display: block;" viewBox="0 0 2048 2048" width="1024" height="1024" preserveAspectRatio="none">
<path transform="translate(0,0)" fill="rgb(48,66,82)" d="M 827.728 430.034 C 839.782 429.205 862.546 429.917 875.466 429.907 L 970.163 429.898 L 1106.22 430.003 C 1132.69 429.942 1159.18 429.851 1185.65 429.874 C 1205.35 429.641 1218.92 440.72 1219.05 461.164 C 1219.43 519.439 1218.66 577.812 1219.25 636.084 C 1219.4 649.908 1209.84 661.301 1196.97 665.966 C 1169.29 667.414 1137.51 666.755 1109.45 666.789 L 964.323 666.839 L 886.189 666.991 C 867.361 667.017 844.786 667.818 826.12 664.549 C 819.414 663.375 810.131 655.233 807.448 649.179 C 805.534 644.86 804.463 638.413 804.239 633.62 C 803.826 575.739 804.715 517.851 803.828 459.971 C 803.782 456.941 804.744 452.353 805.811 449.496 C 809.904 438.536 817.829 434.441 827.728 430.034 z"/>
<path transform="translate(0,0)" fill="rgb(48,66,82)" d="M 721.086 1394.49 C 746.901 1393.95 776.018 1395.77 803.025 1395.51 C 832.643 1395.23 868.938 1392.97 898.009 1397.12 C 901.094 1397.56 911.634 1404.75 913.976 1407.66 C 933.839 1432.52 954.284 1458.71 971.504 1485.46 C 979.967 1498.61 980.701 1512.35 972.312 1525.81 C 964.081 1539.02 955.541 1551.02 945.494 1563.73 C 931.533 1581.39 918.914 1606.53 897.136 1615.78 C 884.505 1619.64 855.209 1618.03 841.5 1617.91 L 691.234 1617.8 C 669.054 1617.78 637.422 1619.84 616.405 1616.55 C 609.871 1615.52 604.357 1612.91 599.167 1608.82 C 591.115 1602.48 582.858 1591.32 582.137 1580.76 C 580.278 1553.49 581.93 1520.15 581.934 1492.35 C 581.936 1475.71 579.938 1441.3 582.947 1426.09 C 584.104 1420.24 587.94 1415.14 591.876 1410.84 C 597.161 1405.06 602.998 1400 610.544 1397.6 C 626.718 1392.44 698.912 1395.1 721.086 1394.49 z"/>
<path transform="translate(0,0)" fill="rgb(54,120,173)" d="M 1147.67 947.526 C 1207.88 947.071 1268.09 947.017 1328.3 947.363 C 1357.33 947.504 1386.67 946.392 1415.64 948.182 C 1428.08 948.95 1441.9 965.044 1448.9 974.634 C 1464.58 996.403 1482.8 1017.97 1496.47 1040.98 C 1508.43 1061.11 1497.9 1076.62 1486.14 1092.68 C 1471.48 1112.69 1456.88 1132.95 1441.62 1152.43 C 1422.72 1174.93 1397 1169.99 1370.5 1170.05 L 1282.68 1170.17 L 1189.76 1170.26 C 1173.1 1170.28 1155.81 1170.76 1139.25 1169.79 C 1125.48 1168.98 1107.53 1150.27 1106.2 1136.71 C 1105.31 1127.67 1105.63 1117.07 1105.63 1107.87 L 1105.69 1054.64 C 1105.71 1030.46 1103.97 1004.18 1106.56 980.432 C 1108.62 961.58 1130.41 949.446 1147.67 947.526 z"/>
<path transform="translate(0,0)" fill="rgb(48,66,82)" d="M 625.02 947.525 C 629.918 948.192 664.547 947.482 671.759 947.444 L 810.371 947.445 C 826.053 947.427 899.195 944.325 907.853 954.797 C 923.403 973.604 988.806 1045.54 977.429 1068.65 C 967.845 1088.12 937.801 1126.46 923.841 1145.57 C 901.967 1175.86 885.873 1170.23 852.718 1170.2 L 773.069 1170.09 L 669.524 1169.98 C 652.085 1169.96 633.915 1170.25 616.541 1169.39 C 610.518 1168.96 604.914 1165.89 600.299 1162.37 C 578.602 1145.87 581.806 1127.5 581.87 1102.29 L 582.053 1047.99 C 582.145 1027.11 581.341 1002.56 582.922 981.898 C 584.492 961.39 605.238 949.235 625.02 947.525 z"/>
<path transform="translate(0,0)" fill="rgb(54,120,173)" d="M 1230.14 1394.5 C 1266.47 1393.7 1303.63 1395.38 1340.1 1394.67 C 1365.08 1394.18 1391.48 1393.93 1416.28 1396.03 C 1420.93 1396.42 1431.5 1403.86 1435.33 1407.38 C 1457.39 1431.97 1477.45 1460.13 1495.99 1487.5 C 1508.83 1506.47 1495.64 1527.01 1483.94 1542.45 C 1469.05 1562.11 1455.35 1582.98 1439.34 1601.72 C 1422 1622 1396.28 1618.3 1372.5 1618.12 L 1231.86 1617.34 L 1174.75 1617.45 C 1163.51 1617.45 1151.41 1617.81 1140.29 1616.54 C 1132.13 1615.61 1126.19 1612.27 1120.22 1606.52 C 1105.46 1592.3 1105.71 1584.03 1105.21 1564.82 C 1104.59 1541.07 1105.79 1519.34 1105.8 1495.41 C 1105.81 1472.24 1103.66 1446.86 1106.75 1423.85 C 1108.33 1418.52 1113.09 1412.66 1116.75 1408.81 C 1133.28 1391.46 1159.58 1394.83 1181.58 1394.87 C 1197.77 1394.92 1213.95 1394.8 1230.14 1394.5 z"/>
<path transform="translate(0,0)" fill="rgb(54,120,173)" d="M 750.324 1253.15 C 789.066 1251.53 837.081 1252.67 876.499 1252.65 L 1122.68 1252.79 L 1232.56 1252.66 C 1244.64 1252.64 1279.51 1251.78 1289.65 1254.18 C 1293.48 1257.87 1295.03 1259.34 1298.12 1263.62 L 1298.17 1264.19 C 1299.75 1279.26 1299 1304.44 1299.02 1320.14 C 1305.74 1320.02 1325.53 1319.02 1330.65 1321.47 C 1329.61 1326.8 1311.45 1345.43 1306.38 1351.27 C 1300.18 1358.41 1289.62 1373.71 1280.22 1375.38 C 1270.69 1372.26 1239.5 1331.52 1228.74 1321.61 L 1227.68 1320.65 C 1238.89 1319.02 1248.65 1319.23 1259.99 1319.37 C 1262.15 1317.12 1261.3 1318.49 1261.31 1314.25 C 1261.19 1306.68 1261.45 1298.49 1261.54 1290.87 C 1232.62 1291.49 1204.74 1290.41 1175.89 1290.43 L 969.857 1290.6 L 827.343 1290.54 C 812.987 1290.41 788.111 1291.16 775.141 1290.3 C 775 1300.16 775.074 1310.17 775.054 1320.05 C 781.47 1319.91 801.63 1318.6 806.111 1321.63 C 804.293 1327.93 774.075 1359.7 768.479 1367.6 C 766.298 1370.68 760.247 1375.6 755.587 1375.88 C 747.122 1370.91 711.13 1329.58 706.104 1320.22 C 716.559 1319.74 728.449 1320.02 739.011 1320.04 C 738.832 1303.71 737.889 1283.24 739.448 1267.16 C 740.157 1259.85 744.812 1256.95 750.324 1253.15 z"/>
<path transform="translate(0,0)" fill="rgb(48,66,82)" d="M 993.688 696.239 C 1008.6 694.953 1015.66 695.32 1030.32 695.498 C 1032.11 721.234 1030.75 764.077 1030.72 791.048 C 1103.49 788.173 1181.33 792.966 1254.49 791.03 C 1263.32 790.797 1281.12 790.063 1289.32 792.977 C 1290.89 793.534 1295.87 798.482 1297.37 799.951 C 1299.32 810.06 1299.04 816.477 1299.09 826.655 C 1285.84 827.969 1274.85 828.91 1261.57 829.31 C 1234.92 830.074 1206.05 829.222 1179.11 829.132 L 1021.87 828.684 C 940.365 828.409 856.425 830.446 775.188 829.388 C 774.576 843.514 774.687 858.081 774.633 872.258 C 780.786 872.106 803.977 870.239 806.751 875.039 C 805.803 877.883 797.197 887.74 794.736 889.973 C 785.843 898.042 766.621 928.673 755.26 928.749 C 745.66 923.635 713.308 882.613 705.909 871.905 L 738.806 871.961 C 737.259 856.372 739.002 828.586 738.674 811.961 C 738.491 802.7 742.137 797.645 748.77 792.032 C 759.438 790.047 798.018 791.578 811.757 791.488 L 994.109 791.154 C 992.235 765.384 994.145 724.025 993.688 696.239 z"/>
<path transform="translate(0,0)" fill="rgb(54,120,173)" d="M 1261.57 829.31 C 1274.85 828.91 1285.84 827.969 1299.09 826.655 L 1299.29 872.08 C 1306.54 871.983 1322.67 871.331 1329.11 872.46 C 1330.11 874.03 1330.75 874.248 1329.9 875.875 C 1324.72 885.707 1287.39 925.939 1280.95 930.536 C 1272.84 923.753 1234.72 882.972 1231 874.26 L 1231.66 872.849 C 1238.1 871.35 1255.21 871.345 1262.02 871.705 C 1261.72 857.885 1262.22 842.802 1261.57 829.31 z"/>
</svg>